{
.appVersion = "3343";
DisplayStrings = (
"Alan/space Play\012Mashallah\012Rosa/space Marina\012HElmanKJGFZ\012QUARTZ\012KALIEFRIEND",
"Ranpifert\012Ranpifert/space/space bpdqecg/space",
"Rastaman\012Bolpopqgnesftjne\012",
"Huberlo/space Ranfuge/space Aplirocyt\012Huberlo/space Ranfuge/space Aplirocyctaafast\012\012alan"
);
customParameters = (
{
name = Axes;
value = (
{
Name = Weight;
Tag = wght;
}
);
}
);
date = "2021-08-11 14:50:01 +0000";
familyName = Antique;
fontMaster = (
{
ascender = 740;
capHeight = 740;
custom = Thin;
descender = -200;
guideLines = (
{
angle = -79.5085;
position = "{136, -28}";
},
{
angle = 197.9044;
position = "{563, 612}";
}
);
iconName = SemiLight;
id = "D8D2F0D2-8948-448B-99CD-378CDFD0E0AE";
userData = {
GSCornerRadius = 44;
};
xHeight = 500;
},
{
ascender = 740;
capHeight = 740;
custom = Black;
descender = -200;
iconName = Bold;
id = "83B83716-1CD1-47ED-B715-8773FED73F88";
userData = {
GSCornerRadius = 130;
};
weightValue = 1000;
xHeight = 500;
}
);
glyphs = (
{
glyphname = A;
lastChange = "2025-06-05 10:10:44 +0000";
layers = (
{
layerId = "D8D2F0D2-8948-448B-99CD-378CDFD0E0AE";
paths = (
{
closed = 1;
nodes = (
"294 740 LINE",
"28 0 LINE",
"95 0 LINE",
"355 740 LINE"
);
},
{
closed = 1;
nodes = (
"560 0 LINE",
"626 0 LINE",
"361 740 LINE",
"300 740 LINE"
);
},
{
closed = 1;
nodes = (
"156 251 LINE",
"499 251 LINE",
"499 307 LINE",
"156 307 LINE"
);
}
);
width = 655;
},
{
layerId = "83B83716-1CD1-47ED-B715-8773FED73F88";
paths = (
{
closed = 1;
nodes = (
"268 740 LINE",
"10 0 LINE",
"256 0 LINE",
"472 740 LINE"
);
},
{
closed = 1;
nodes = (
"532 0 LINE",
"778 0 LINE",
"520 740 LINE",
"316 740 LINE"
);
},
{
closed = 1;
nodes = (
"194 114 LINE",
"596 114 LINE",
"596 294 LINE",
"194 294 LINE"
);
}
);
width = 788;
}
);
rightMetricsKey = "=|";
unicode = 0041;
},
{
glyphname = B;
lastChange = "2025-06-05 10:08:55 +0000";
layers = (
{
layerId = "D8D2F0D2-8948-448B-99CD-378CDFD0E0AE";
paths = (
{
closed = 1;
nodes = (
"392 0 LINE SMOOTH",
"559 0 OFFCURVE",
"659 73 OFFCURVE",
"659 207 CURVE SMOOTH",
"659 340 OFFCURVE",
"562 387 OFFCURVE",
"420 387 CURVE SMOOTH",
"173 387 LINE",
"173 345 LINE",
"392 345 LINE SMOOTH",
"526 345 OFFCURVE",
"596 307 OFFCURVE",
"596 206 CURVE SMOOTH",
"596 105 OFFCURVE",
"526 57 OFFCURVE",
"392 57 CURVE SMOOTH",
"173 57 LINE",
"173 0 LINE"
);
},
{
closed = 1;
nodes = (
"177 0 LINE",
"177 740 LINE",
"114 740 LINE",
"114 0 LINE"
);
},
{
closed = 1;
nodes = (
"392 361 LINE SMOOTH",
"530 361 OFFCURVE",
"630 415 OFFCURVE",
"630 549 CURVE SMOOTH",
"630 681 OFFCURVE",
"533 740 OFFCURVE",
"363 740 CURVE SMOOTH",
"144 740 LINE",
"144 683 LINE",
"363 683 LINE SMOOTH",
"497 683 OFFCURVE",
"568 648 OFFCURVE",
"568 548 CURVE SMOOTH",
"568 447 OFFCURVE",
"497 402 OFFCURVE",
"363 402 CURVE SMOOTH",
"144 402 LINE",
"144 361 LINE"
);
}
);
width = 729;
},
{
layerId = "83B83716-1CD1-47ED-B715-8773FED73F88";
paths = (
{
closed = 1;
nodes = (
"366 0 LINE SMOOTH",
"550 0 OFFCURVE",
"674 61 OFFCURVE",
"674 210 CURVE SMOOTH",
"674 382 OFFCURVE",
"508 398 OFFCURVE",
"366 398 CURVE SMOOTH",
"188 398 LINE",
"188 286 LINE",
"336 286 LINE SMOOTH",
"396 286 OFFCURVE",
"426 274 OFFCURVE",
"426 231 CURVE SMOOTH",
"426 185 OFFCURVE",
"393 170 OFFCURVE",
"336 170 CURVE SMOOTH",
"188 170 LINE",
"188 0 LINE"
);
},
{
closed = 1;
nodes = (
"352 346 LINE SMOOTH",
"486 346 OFFCURVE",
"658 355 OFFCURVE",
"658 532 CURVE SMOOTH",
"658 676 OFFCURVE",
"544 740 OFFCURVE",
"352 740 CURVE SMOOTH",
"178 740 LINE",
"178 570 LINE",
"329 570 LINE SMOOTH",
"388 570 OFFCURVE",
"418 554 OFFCURVE",
"418 511 CURVE SMOOTH",
"418 466 OFFCURVE",
"385 456 OFFCURVE",
"329 456 CURVE SMOOTH",
"178 456 LINE",
"178 346 LINE"
);
},
{
closed = 1;
nodes = (
"266 0 LINE",
"266 740 LINE",
"30 740 LINE",
"30 0 LINE"
);
}
);
width = 682;
}
);
leftMetricsKey = "=H";
unicode = 0042;
},
{
glyphname = C;
lastChange = "2021-09-12 09:27:20 +0000";
layers = (
{
layerId = "D8D2F0D2-8948-448B-99CD-378CDFD0E0AE";
paths = (
{
closed = 1;
nodes = (
"555 97 OFFCURVE",
"482 47 OFFCURVE",
"380 47 CURVE SMOOTH",
"220 47 OFFCURVE",
"121 160 OFFCURVE",
"123 362 CURVE SMOOTH",
"125 565 OFFCURVE",
"221 693 OFFCURVE",
"384 693 CURVE SMOOTH",
"480 693 OFFCURVE",
"550 647 OFFCURVE",
"584 542 CURVE",
"645 562 LINE",
"596 698 OFFCURVE",
"503 750 OFFCURVE",
"385 750 CURVE SMOOTH",
"185 750 OFFCURVE",
"59 597 OFFCURVE",
"59 360 CURVE SMOOTH",
"59 128 OFFCURVE",
"180 -9 OFFCURVE",
"377 -9 CURVE SMOOTH",
"509 -9 OFFCURVE",
"603 53 OFFCURVE",
"653 177 CURVE",
"595 201 LINE"
);
}
);
width = 691;
},
{
layerId = "83B83716-1CD1-47ED-B715-8773FED73F88";
paths = (
{
closed = 1;
nodes = (
"529 193 OFFCURVE",
"480 160 OFFCURVE",
"413 160 CURVE SMOOTH",
"308 160 OFFCURVE",
"250 249 OFFCURVE",
"250 363 CURVE SMOOTH",
"250 481 OFFCURVE",
"312 580 OFFCURVE",
"415 580 CURVE SMOOTH",
"486 580 OFFCURVE",
"527 540 OFFCURVE",
"545 490 CURVE",
"724 562 LINE",
"672 699 OFFCURVE",
"551 750 OFFCURVE",
"418 750 CURVE SMOOTH",
"186 750 OFFCURVE",
"56 585 OFFCURVE",
"56 360 CURVE SMOOTH",
"56 131 OFFCURVE",
"190 -10 OFFCURVE",
"412 -10 CURVE SMOOTH",
"564 -10 OFFCURVE",
"681 55 OFFCURVE",
"736 188 CURVE",
"563 260 LINE"
);
}
);
width = 770;
}
);
leftMetricsKey = "=O";
unicode = 0043;
},
{
glyphname = D;
lastChange = "2021-09-12 09:27:20 +0000";
layers = (
{
layerId = "D8D2F0D2-8948-448B-99CD-378CDFD0E0AE";
paths = (
{
closed = 1;
nodes = (
"114 740 LINE",
"114 0 LINE",
"177 0 LINE",
"177 740 LINE"
);
},
{
closed = 1;
nodes = (
"287 0 LINE SMOOTH",
"560 0 OFFCURVE",
"674 147 OFFCURVE",
"674 384 CURVE SMOOTH",
"674 616 OFFCURVE",
"560 740 OFFCURVE",
"287 740 CURVE SMOOTH",
"144 740 LINE",
"144 683 LINE",
"287 683 LINE SMOOTH",
"520 683 OFFCURVE",
"609 578 OFFCURVE",
"609 379 CURVE SMOOTH",
"609 176 OFFCURVE",
"524 57 OFFCURVE",
"287 57 CURVE SMOOTH",
"144 57 LINE",
"144 0 LINE"
);
}
);
width = 733;
},
{
layerId = "83B83716-1CD1-47ED-B715-8773FED73F88";
paths = (
{
closed = 1;
nodes = (
"70 740 LINE",
"70 0 LINE",
"266 0 LINE",
"266 740 LINE"
);
},
{
closed = 1;
nodes = (
"316 0 LINE SMOOTH",
"593 0 OFFCURVE",
"722 155 OFFCURVE",
"722 385 CURVE SMOOTH",
"722 609 OFFCURVE",
"593 740 OFFCURVE",
"316 740 CURVE SMOOTH",
"162 740 LINE",
"162 580 LINE",
"307 580 LINE SMOOTH",
"447 580 OFFCURVE",
"516 510 OFFCURVE",
"516 377 CURVE SMOOTH",
"516 241 OFFCURVE",
"451 160 OFFCURVE",
"307 160 CURVE SMOOTH",
"162 160 LINE",
"162 0 LINE"
);
}
);
width = 784;
}
);
leftMetricsKey = "=H";
rightMetricsKey = "=O";
unicode = 0044;
},
{
glyphname = E;
lastChange = "2025-06-05 10:09:08 +0000";
layers = (
{
layerId = "D8D2F0D2-8948-448B-99CD-378CDFD0E0AE";
paths = (
{
closed = 1;
nodes = (
"114 740 LINE",
"114 0 LINE",
"178 0 LINE",
"178 740 LINE"
);
},
{
closed = 1;
nodes = (
"144 684 LINE",
"592 684 LINE",
"592 740 LINE",
"144 740 LINE"
);
},
{
closed = 1;
nodes = (
"144 0 LINE",
"592 0 LINE",
"592 56 LINE",
"144 56 LINE"
);
},
{
closed = 1;
nodes = (
"144 374 LINE",
"552 374 LINE",
"552 430 LINE",
"144 430 LINE"
);
}
);
width = 640;
},
{
layerId = "83B83716-1CD1-47ED-B715-8773FED73F88";
paths = (
{
closed = 1;
nodes = (
"102 290 LINE",
"484 290 LINE",
"484 470 LINE",
"102 470 LINE"
);
},
{
closed = 1;
nodes = (
"102 560 LINE",
"554 560 LINE",
"554 740 LINE",
"102 740 LINE"
);
},
{
closed = 1;
nodes = (
"102 0 LINE",
"554 0 LINE",
"554 180 LINE",
"102 180 LINE"
);
},
{
closed = 1;
nodes = (
"266 0 LINE",
"266 740 LINE",
"30 740 LINE",
"30 0 LINE"
);
}
);
width = 570;
}
);
leftMetricsKey = "=H";
unicode = 0045;
},
{
glyphname = F;
lastChange = "2025-06-05 10:09:16 +0000";
layers = (
{
layerId = "D8D2F0D2-8948-448B-99CD-378CDFD0E0AE";
paths = (
{
closed = 1;
nodes = (
"114 740 LINE",
"114 0 LINE",
"178 0 LINE",
"178 740 LINE"
);
},
{
closed = 1;
nodes = (
"144 684 LINE",
"602 684 LINE",
"602 740 LINE",
"144 740 LINE"
);
},
{
closed = 1;
nodes = (
"144 364 LINE",
"562 364 LINE",
"562 420 LINE",
"144 420 LINE"
);
}
);
width = 650;
},
{
layerId = "83B83716-1CD1-47ED-B715-8773FED73F88";
paths = (
{
closed = 1;
nodes = (
"266 0 LINE",
"266 740 LINE",
"30 740 LINE",
"30 0 LINE"
);
},
{
closed = 1;
nodes = (
"102 290 LINE",
"484 290 LINE",
"484 470 LINE",
"102 470 LINE"
);
},
{
closed = 1;
nodes = (
"102 560 LINE",
"554 560 LINE",
"554 740 LINE",
"102 740 LINE"
);
}
);
width = 560;
}
);
leftMetricsKey = "=H";
rightMetricsKey = "=E-10";
unicode = 0046;
},
{
glyphname = G;
lastChange = "2025-05-29 16:23:19 +0000";
layers = (
{
layerId = "D8D2F0D2-8948-448B-99CD-378CDFD0E0AE";
paths = (
{
closed = 1;
nodes = (
"623 408 LINE",
"642 174 OFFCURVE",
"549 47 OFFCURVE",
"382 47 CURVE SMOOTH",
"227 47 OFFCURVE",
"127 158 OFFCURVE",
"127 362 CURVE SMOOTH",
"127 565 OFFCURVE",
"228 693 OFFCURVE",
"392 693 CURVE SMOOTH",
"490 693 OFFCURVE",
"568 647 OFFCURVE",
"597 542 CURVE",
"659 562 LINE",
"613 698 OFFCURVE",
"513 750 OFFCURVE",
"395 750 CURVE SMOOTH",
"192 750 OFFCURVE",
"63 593 OFFCURVE",
"63 356 CURVE SMOOTH",
"63 124 OFFCURVE",
"187 -9 OFFCURVE",
"381 -9 CURVE SMOOTH",
"588 -9 OFFCURVE",
"703 147 OFFCURVE",
"683 408 CURVE"
);
},
{
closed = 1;
nodes = (
"643 351 LINE",
"683 408 LINE",
"346 408 LINE",
"346 351 LINE"
);
}
);
width = 736;
},
{
associatedMasterId = "83B83716-1CD1-47ED-B715-8773FED73F88";
layerId = "B696A3A8-550F-475E-A5C7-9B6820D3AA3C";
name = "29 mai 25 à 18:23";
paths = (
{
closed = 1;
nodes = (
"565 355 LINE",
"593 234 OFFCURVE",
"527 160 OFFCURVE",
"417 160 CURVE SMOOTH",
"308 160 OFFCURVE",
"250 249 OFFCURVE",
"250 363 CURVE SMOOTH",
"250 481 OFFCURVE",
"312 576 OFFCURVE",
"475 576 CURVE SMOOTH",
"553 576 OFFCURVE",
"627 554 OFFCURVE",
"685 521 CURVE",
"702 699 OFFCURVE",
"590 750 OFFCURVE",
"446 750 CURVE SMOOTH",
"186 750 OFFCURVE",
"56 585 OFFCURVE",
"56 360 CURVE SMOOTH",
"56 131 OFFCURVE",
"190 -10 OFFCURVE",
"418 -10 CURVE SMOOTH",
"655 -10 OFFCURVE",
"786 145 OFFCURVE",
"753 456 CURVE"
);
},
{
closed = 1;
nodes = (
"713 288 LINE",
"753 456 LINE",
"371 456 LINE",
"371 288 LINE"
);
}
);
width = 812;
},
{
layerId = "83B83716-1CD1-47ED-B715-8773FED73F88";
name = Black;
paths = (
{
closed = 1;
nodes = (
"587 345 LINE",
"595 234 OFFCURVE",
"539 160 OFFCURVE",
"429 160 CURVE SMOOTH",
"308 160 OFFCURVE",
"250 249 OFFCURVE",
"250 363 CURVE SMOOTH",
"250 481 OFFCURVE",
"312 580 OFFCURVE",
"425 580 CURVE SMOOTH",
"498 580 OFFCURVE",
"539 540 OFFCURVE",
"557 490 CURVE",
"736 562 LINE",
"684 699 OFFCURVE",
"557 750 OFFCURVE",
"425 750 CURVE SMOOTH",
"186 750 OFFCURVE",
"56 585 OFFCURVE",
"56 360 CURVE SMOOTH",
"56 131 OFFCURVE",
"190 -10 OFFCURVE",
"423 -10 CURVE SMOOTH",
"667 -10 OFFCURVE",
"788 145 OFFCURVE",
"775 446 CURVE"
);
},
{
closed = 1;
nodes = (
"725 278 LINE",
"775 446 LINE",
"383 446 LINE",
"383 278 LINE"
);
}
);
width = 824;
}
);
leftMetricsKey = "=O";
unicode = 0047;
},
{
glyphname = H;
lastChange = "2025-06-05 10:08:30 +0000";
layers = (
{
layerId = "D8D2F0D2-8948-448B-99CD-378CDFD0E0AE";
paths = (
{
closed = 1;
nodes = (
"114 740 LINE",
"114 0 LINE",
"178 0 LINE",
"178 740 LINE"
);
},
{
closed = 1;
nodes = (
"570 740 LINE",
"570 0 LINE",
"634 0 LINE",
"634 740 LINE"
);
},
{
closed = 1;
nodes = (
"144 372 LINE",
"602 372 LINE",
"602 430 LINE",
"144 430 LINE"
);
}
);
width = 748;
},
{
layerId = "83B83716-1CD1-47ED-B715-8773FED73F88";
paths = (
{
closed = 1;
nodes = (
"102 290 LINE",
"584 290 LINE",
"584 470 LINE",
"102 470 LINE"
);
},
{
closed = 1;
nodes = (
"266 0 LINE",
"266 740 LINE",
"30 740 LINE",
"30 0 LINE"
);
},
{
closed = 1;
nodes = (
"668 0 LINE",
"668 740 LINE",
"432 740 LINE",
"432 0 LINE"
);
}
);
width = 698;
}
);
rightMetricsKey = "=|";
unicode = 0048;
},
{
glyphname = I;
lastChange = "2025-06-05 10:07:49 +0000";
layers = (
{
layerId = "D8D2F0D2-8948-448B-99CD-378CDFD0E0AE";
paths = (
{
closed = 1;
nodes = (
"114 740 LINE",
"114 0 LINE",
"177 0 LINE",
"177 740 LINE"
);
}
);
width = 290;
},
{
layerId = "83B83716-1CD1-47ED-B715-8773FED73F88";
paths = (
{
closed = 1;
nodes = (
"266 0 LINE",
"266 740 LINE",
"30 740 LINE",
"30 0 LINE"
);
}
);
width = 296;
}
);
leftMetricsKey = "=H";
rightMetricsKey = "=H";
unicode = 0049;
},
{
glyphname = J;
lastChange = "2025-05-29 16:22:53 +0000";
layers = (
{
layerId = "D8D2F0D2-8948-448B-99CD-378CDFD0E0AE";
paths = (
{
closed = 1;
nodes = (
"231 -27 OFFCURVE",
"292 24 OFFCURVE",
"292 228 CURVE SMOOTH",
"292 740 LINE",
"230 740 LINE",
"230 226 LINE SMOOTH",
"230 55 OFFCURVE",
"187 34 OFFCURVE",
"47 58 CURVE",
"39 0 LINE"
);
}
);
width = 397;
},
{
layerId = "83B83716-1CD1-47ED-B715-8773FED73F88";
paths = (
{
closed = 1;
nodes = (
"226 -10 OFFCURVE",
"308 61 OFFCURVE",
"308 260 CURVE SMOOTH",
"308 740 LINE",
"122 740 LINE",
"122 263 LINE SMOOTH",
"122 182 OFFCURVE",
"105 161 OFFCURVE",
"20 165 CURVE",
"20 0 LINE"
);
}
);
width = 368;
},
{
associatedMasterId = "D8D2F0D2-8948-448B-99CD-378CDFD0E0AE";
layerId = "7F9D26FB-564C-4C0E-BC72-198310F9C550";
name = "Sep 11 21, 16:01";
paths = (
{
closed = 1;
nodes = (
"243 22 OFFCURVE",
"308 85 OFFCURVE",
"308 240 CURVE SMOOTH",
"308 780 LINE",
"242 780 LINE",
"242 238 LINE SMOOTH",
"242 118 OFFCURVE",
"197 76 OFFCURVE",
"46 51 CURVE",
"51 -10 LINE"
);
}
);
width = 418;
}
);
rightMetricsKey = "=U";
unicode = 004A;
},
{
glyphname = K;
lastChange = "2021-09-12 09:27:20 +0000";
layers = (
{
layerId = "D8D2F0D2-8948-448B-99CD-378CDFD0E0AE";
paths = (
{
closed = 1;
nodes = (
"114 740 LINE",
"114 0 LINE",
"177 0 LINE",
"177 740 LINE"
);
},
{
closed = 1;
nodes = (
"595 740 LINE",
"515 740 LINE",
"126 307 LINE",
"159 259 LINE"
);
},
{
closed = 1;
nodes = (
"240 403 LINE",
"544 0 LINE",
"623 0 LINE",
"285 447 LINE"
);
}
);
width = 642;
},
{
layerId = "83B83716-1CD1-47ED-B715-8773FED73F88";
paths = (
{
closed = 1;
nodes = (
"70 740 LINE",
"70 0 LINE",
"266 0 LINE",
"266 740 LINE"
);
},
{
closed = 1;
nodes = (
"754 740 LINE",
"513 740 LINE",
"107 283 LINE",
"194 126 LINE"
);
},
{
closed = 1;
nodes = (
"262 415 LINE",
"543 0 LINE",
"778 0 LINE",
"463 467 LINE"
);
}
);
width = 798;
}
);
leftMetricsKey = "=H";
unicode = 004B;
},
{
glyphname = L;
lastChange = "2025-06-05 10:08:26 +0000";
layers = (
{
layerId = "D8D2F0D2-8948-448B-99CD-378CDFD0E0AE";
paths = (
{
closed = 1;
nodes = (
"114 740 LINE",
"114 0 LINE",
"178 0 LINE",
"178 740 LINE"
);
},
{
closed = 1;
nodes = (
"144 0 LINE",
"592 0 LINE",
"592 56 LINE",
"144 56 LINE"
);
}
);
width = 632;
},
{
layerId = "83B83716-1CD1-47ED-B715-8773FED73F88";
paths = (
{
closed = 1;
nodes = (
"112 0 LINE",
"564 0 LINE",
"564 180 LINE",
"112 180 LINE"
);
},
{
closed = 1;
nodes = (
"266 0 LINE",
"266 740 LINE",
"30 740 LINE",
"30 0 LINE"
);
}
);
width = 574;
}
);
leftMetricsKey = "=H";
rightMetricsKey = "=+10";
unicode = 004C;
},
{
glyphname = M;
lastChange = "2025-05-29 16:10:01 +0000";
layers = (
{
layerId = "D8D2F0D2-8948-448B-99CD-378CDFD0E0AE";
paths = (
{
closed = 1;
nodes = (
"419 300 LINE",
"465 300 LINE",
"192 740 LINE",
"118 740 LINE",
"439 223 LINE",
"441 223 LINE",
"763 740 LINE",
"693 740 LINE"
);
},
{
closed = 1;
nodes = (
"114 740 LINE",
"114 0 LINE",
"175 0 LINE",
"175 740 LINE"
);
},
{
closed = 1;
nodes = (
"706 740 LINE",
"706 0 LINE",
"767 0 LINE",
"767 740 LINE"
);
}
);
width = 881;
},
{
layerId = "83B83716-1CD1-47ED-B715-8773FED73F88";
paths = (
{
closed = 1;
nodes = (
"461 445 LINE",
"485 445 LINE",
"289 740 LINE",
"80 740 LINE",
"472 145 LINE",
"474 145 LINE",
"866 740 LINE",
"657 740 LINE"
);
},
{
closed = 1;
nodes = (
"70 740 LINE",
"70 0 LINE",
"250 0 LINE",
"250 740 LINE"
);
},
{
closed = 1;
nodes = (
"696 740 LINE",
"696 0 LINE",
"876 0 LINE",
"876 740 LINE"
);
}
);
width = 946;
}
);
leftMetricsKey = "=H";
rightMetricsKey = "=H";
unicode = 004D;
},
{
glyphname = N;
lastChange = "2025-05-29 16:25:49 +0000";
layers = (
{
layerId = "D8D2F0D2-8948-448B-99CD-378CDFD0E0AE";
paths = (
{
closed = 1;
nodes = (
"114 740 LINE",
"114 0 LINE",
"173 0 LINE",
"173 740 LINE"
);
},
{
closed = 1;
nodes = (
"575 740 LINE",
"575 0 LINE",
"634 0 LINE",
"634 740 LINE"
);
},
{
closed = 1;
nodes = (
"114 740 LINE",
"561 0 LINE",
"634 0 LINE",
"187 740 LINE"
);
}
);
width = 748;
},
{
associatedMasterId = "83B83716-1CD1-47ED-B715-8773FED73F88";
layerId = "761FAA93-50F0-4A63-9565-8A06E3A7F0F2";
name = "Aug 25 21, 12:50";
paths = (
{
closed = 1;
nodes = (
"70 780 LINE",
"70 0 LINE",
"254 0 LINE",
"254 780 LINE"
);
},
{
closed = 1;
nodes = (
"532 780 LINE",
"532 0 LINE",
"716 0 LINE",
"716 780 LINE"
);
},
{
closed = 1;
nodes = (
"70 780 LINE",
"540 187 LINE",
"716 250 LINE",
"296 780 LINE"
);
}
);
width = 786;
},
{
layerId = "83B83716-1CD1-47ED-B715-8773FED73F88";
paths = (
{
closed = 1;
nodes = (
"70 740 LINE",
"70 0 LINE",
"246 0 LINE",
"246 740 LINE"
);
},
{
closed = 1;
nodes = (
"550 740 LINE",
"550 0 LINE",
"726 0 LINE",
"726 740 LINE"
);
},
{
closed = 1;
nodes = (
"70 740 LINE",
"515 0 LINE",
"726 0 LINE",
"281 740 LINE"
);
}
);
width = 796;
}
);
leftMetricsKey = "=H";
rightMetricsKey = "=H";
unicode = 004E;
},
{
glyphname = O;
lastChange = "2021-09-12 09:27:20 +0000";
layers = (
{
layerId = "D8D2F0D2-8948-448B-99CD-378CDFD0E0AE";
paths = (
{
closed = 1;
nodes = (
"59 124 OFFCURVE",
"182 -9 OFFCURVE",
"367 -9 CURVE SMOOTH",
"562 -9 OFFCURVE",
"685 147 OFFCURVE",
"685 384 CURVE SMOOTH",
"685 616 OFFCURVE",
"562 750 OFFCURVE",
"377 750 CURVE SMOOTH",
"182 750 OFFCURVE",
"59 593 OFFCURVE",
"59 356 CURVE SMOOTH"
);
},
{
closed = 1;
nodes = (
"123 565 OFFCURVE",
"218 693 OFFCURVE",
"374 693 CURVE SMOOTH",
"522 693 OFFCURVE",
"621 578 OFFCURVE",
"621 379 CURVE SMOOTH",
"621 176 OFFCURVE",
"526 47 OFFCURVE",
"370 47 CURVE SMOOTH",
"222 47 OFFCURVE",
"123 161 OFFCURVE",
"123 362 CURVE SMOOTH"
);
}
);
width = 744;
},
{
layerId = "83B83716-1CD1-47ED-B715-8773FED73F88";
paths = (
{
closed = 1;
nodes = (
"56 135 OFFCURVE",
"185 -10 OFFCURVE",
"406 -10 CURVE SMOOTH",
"629 -10 OFFCURVE",
"766 150 OFFCURVE",
"766 381 CURVE SMOOTH",
"766 605 OFFCURVE",
"637 750 OFFCURVE",
"416 750 CURVE SMOOTH",
"193 750 OFFCURVE",
"56 589 OFFCURVE",
"56 360 CURVE SMOOTH"
);
},
{
closed = 1;
nodes = (
"252 504 OFFCURVE",
"309 584 OFFCURVE",
"413 584 CURVE SMOOTH",
"514 584 OFFCURVE",
"570 509 OFFCURVE",
"570 373 CURVE SMOOTH",
"570 236 OFFCURVE",
"513 155 OFFCURVE",
"409 155 CURVE SMOOTH",
"308 155 OFFCURVE",
"252 231 OFFCURVE",
"252 367 CURVE SMOOTH"
);
}
);
width = 822;
}
);
rightMetricsKey = "=|";
unicode = 004F;
},
{
glyphname = P;
lastChange = "2025-06-05 10:09:04 +0000";
layers = (
{
layerId = "D8D2F0D2-8948-448B-99CD-378CDFD0E0AE";
paths = (
{
closed = 1;
nodes = (
"363 345 LINE SMOOTH",
"530 345 OFFCURVE",
"630 415 OFFCURVE",
"630 549 CURVE SMOOTH",
"630 681 OFFCURVE",
"533 740 OFFCURVE",
"363 740 CURVE SMOOTH",
"144 740 LINE",
"144 683 LINE",
"363 683 LINE SMOOTH",
"497 683 OFFCURVE",
"568 648 OFFCURVE",
"568 548 CURVE SMOOTH",
"568 447 OFFCURVE",
"497 402 OFFCURVE",
"363 402 CURVE SMOOTH",
"144 402 LINE",
"144 345 LINE"
);
},
{
closed = 1;
nodes = (
"177 0 LINE",
"177 740 LINE",
"114 740 LINE",
"114 0 LINE"
);
}
);
width = 678;
},
{
layerId = "83B83716-1CD1-47ED-B715-8773FED73F88";
paths = (
{
closed = 1;
nodes = (
"352 242 LINE SMOOTH",
"546 242 OFFCURVE",
"672 324 OFFCURVE",
"672 492 CURVE SMOOTH",
"672 655 OFFCURVE",
"554 740 OFFCURVE",
"352 740 CURVE SMOOTH",
"178 740 LINE",
"178 558 LINE",
"325 558 LINE SMOOTH",
"392 558 OFFCURVE",
"424 542 OFFCURVE",
"424 492 CURVE SMOOTH",
"424 439 OFFCURVE",
"388 424 OFFCURVE",
"325 424 CURVE SMOOTH",
"178 424 LINE",
"178 242 LINE"
);
},
{
closed = 1;
nodes = (
"266 0 LINE",
"266 740 LINE",
"30 740 LINE",
"30 0 LINE"
);
}
);
width = 678;
}
);
leftMetricsKey = "=H";
unicode = 0050;
},
{
glyphname = Q;
lastChange = "2025-05-29 16:23:50 +0000";
layers = (
{
components = (
{
name = O;
}
);
layerId = "D8D2F0D2-8948-448B-99CD-378CDFD0E0AE";
paths = (
{
closed = 1;
nodes = (
"674 -38 LINE",
"714 3 LINE",
"460 256 LINE",
"420 215 LINE"
);
}
);
width = 752;
},
{
components = (
{
name = O;
}
);
layerId = "83B83716-1CD1-47ED-B715-8773FED73F88";
paths = (
{
closed = 1;
nodes = (
"656 -63 LINE",
"782 63 LINE",
"495 350 LINE",
"369 224 LINE"
);
}
);
width = 828;
}
);
leftMetricsKey = "=O";
unicode = 0051;
},
{
glyphname = R;
lastChange = "2025-06-05 09:59:16 +0000";
layers = (
{
layerId = "D8D2F0D2-8948-448B-99CD-378CDFD0E0AE";
paths = (
{
closed = 1;
nodes = (
"363 345 LINE SMOOTH",
"530 345 OFFCURVE",
"630 415 OFFCURVE",
"630 549 CURVE SMOOTH",
"630 681 OFFCURVE",
"533 740 OFFCURVE",
"363 740 CURVE SMOOTH",
"144 740 LINE",
"144 683 LINE",
"363 683 LINE SMOOTH",
"497 683 OFFCURVE",
"568 648 OFFCURVE",
"568 548 CURVE SMOOTH",
"568 447 OFFCURVE",
"497 402 OFFCURVE",
"363 402 CURVE SMOOTH",
"144 402 LINE",
"144 345 LINE"
);
},
{
closed = 1;
nodes = (
"177 0 LINE",
"177 740 LINE",
"114 740 LINE",
"114 0 LINE"
);
},
{
closed = 1;
nodes = (
"629 0 OFFCURVE",
"634 20 OFFCURVE",
"620 49 CURVE SMOOTH",
"465 362 LINE",
"399 361 LINE",
"562 26 LINE SMOOTH",
"570 9 OFFCURVE",
"582 0 OFFCURVE",
"601 0 CURVE SMOOTH"
);
}
);
width = 693;
},
{
layerId = "83B83716-1CD1-47ED-B715-8773FED73F88";
paths = (
{
closed = 1;
nodes = (
"316 0 LINE",
"316 740 LINE",
"70 740 LINE",
"70 0 LINE"
);
},
{
closed = 1;
nodes = (
"721 -16 OFFCURVE",
"748 92 OFFCURVE",
"692 179 CURVE SMOOTH",
"593 335 LINE",
"332 310 LINE",
"445 93 LINE SMOOTH",
"478 29 OFFCURVE",
"522 -16 OFFCURVE",
"598 -16 CURVE SMOOTH"
);
},
{
closed = 1;
nodes = (
"402 242 LINE SMOOTH",
"596 242 OFFCURVE",
"722 324 OFFCURVE",
"722 492 CURVE SMOOTH",
"722 655 OFFCURVE",
"604 740 OFFCURVE",
"402 740 CURVE SMOOTH",
"228 740 LINE",
"228 558 LINE",
"375 558 LINE SMOOTH",
"442 558 OFFCURVE",
"474 542 OFFCURVE",
"474 492 CURVE SMOOTH",
"474 439 OFFCURVE",
"438 424 OFFCURVE",
"375 424 CURVE SMOOTH",
"228 424 LINE",
"228 242 LINE"
);
}
);
width = 756;
}
);
leftMetricsKey = "=H";
unicode = 0052;
},
{
glyphname = S;
lastChange = "2021-09-12 09:27:20 +0000";
layers = (
{
layerId = "83B83716-1CD1-47ED-B715-8773FED73F88";
width = 600;
},
{
associatedMasterId = "D8D2F0D2-8948-448B-99CD-378CDFD0E0AE";
layerId = "9BF5987E-DBA8-4C28-99DD-D78EF1ED3B67";
name = "Aug 25 21, 21:55";
paths = (
{
closed = 1;
nodes = (
"99 55 OFFCURVE",
"190 -10 OFFCURVE",
"330 -10 CURVE SMOOTH",
"485 -10 OFFCURVE",
"588 71 OFFCURVE",
"588 197 CURVE SMOOTH",
"588 458 OFFCURVE",
"154 384 OFFCURVE",
"154 588 CURVE SMOOTH",
"154 659 OFFCURVE",
"206 734 OFFCURVE",
"331 734 CURVE SMOOTH",
"454 734 OFFCURVE",
"501 661 OFFCURVE",
"521 586 CURVE",
"583 606 LINE",
"549 723 OFFCURVE",
"463 790 OFFCURVE",
"331 790 CURVE SMOOTH",
"177 790 OFFCURVE",
"90 700 OFFCURVE",
"90 583 CURVE SMOOTH",
"90 322 OFFCURVE",
"524 396 OFFCURVE",
"524 192 CURVE SMOOTH",
"524 117 OFFCURVE",
"465 47 OFFCURVE",
"332 47 CURVE SMOOTH",
"222 47 OFFCURVE",
"156 97 OFFCURVE",
"123 194 CURVE",
"62 174 LINE"
);
}
);
width = 666;
},
{
associatedMasterId = "D8D2F0D2-8948-448B-99CD-378CDFD0E0AE";
guideLines = (
{
angle = 219.8056;
position = "{557, 855}";
}
);
layerId = "EB3AAA4A-06AE-4173-BE5A-F964DF34B32D";
name = "Sep 11 21, 16:51";
paths = (
{
closed = 1;
nodes = (
"133 31 OFFCURVE",
"221 -10 OFFCURVE",
"331 -10 CURVE SMOOTH",
"485 -10 OFFCURVE",
"588 71 OFFCURVE",
"588 197 CURVE SMOOTH",
"588 458 OFFCURVE",
"154 384 OFFCURVE",
"154 587 CURVE SMOOTH",
"154 657 OFFCURVE",
"206 732 OFFCURVE",
"331 732 CURVE SMOOTH",
"413 732 OFFCURVE",
"472 700 OFFCURVE",
"529 616 CURVE",
"581 658 LINE",
"519 750 OFFCURVE",
"434 790 OFFCURVE",
"331 790 CURVE SMOOTH",
"176 790 OFFCURVE",
"90 700 OFFCURVE",
"90 583 CURVE SMOOTH",
"90 322 OFFCURVE",
"524 396 OFFCURVE",
"524 193 CURVE SMOOTH",
"524 118 OFFCURVE",
"465 48 OFFCURVE",
"333 48 CURVE SMOOTH",
"245 48 OFFCURVE",
"182 79 OFFCURVE",
"116 163 CURVE",
"64 122 LINE"
);
}
);
width = 666;
},
{
guideLines = (
{
angle = 219.8056;
position = "{557, 855}";
}
);
layerId = "D8D2F0D2-8948-448B-99CD-378CDFD0E0AE";
paths = (
{
closed = 1;
nodes = (
"119 29 OFFCURVE",
"206 -9 OFFCURVE",
"314 -9 CURVE SMOOTH",
"466 -9 OFFCURVE",
"566 67 OFFCURVE",
"566 190 CURVE SMOOTH",
"566 444 OFFCURVE",
"140 364 OFFCURVE",
"140 557 CURVE SMOOTH",
"140 623 OFFCURVE",
"191 695 OFFCURVE",
"314 695 CURVE SMOOTH",
"395 695 OFFCURVE",
"454 664 OFFCURVE",
"510 585 CURVE",
"561 624 LINE",
"500 712 OFFCURVE",
"416 750 OFFCURVE",
"314 750 CURVE SMOOTH",
"161 750 OFFCURVE",
"79 664 OFFCURVE",
"79 553 CURVE SMOOTH",
"79 306 OFFCURVE",
"505 385 OFFCURVE",
"505 186 CURVE SMOOTH",
"505 112 OFFCURVE",
"447 46 OFFCURVE",
"316 46 CURVE SMOOTH",
"230 46 OFFCURVE",
"167 75 OFFCURVE",
"102 155 CURVE",
"51 116 LINE"
);
}
);
width = 632;
}
);
unicode = 0053;
},
{
glyphname = T;
lastChange = "2025-06-05 10:08:22 +0000";
layers = (
{
layerId = "D8D2F0D2-8948-448B-99CD-378CDFD0E0AE";
paths = (
{
closed = 1;
nodes = (
"262 740 LINE",
"262 0 LINE",
"326 0 LINE",
"326 740 LINE"
);
},
{
closed = 1;
nodes = (
"10 683 LINE",
"578 683 LINE",
"578 740 LINE",
"10 740 LINE"
);
}
);
width = 586;
},
{
layerId = "83B83716-1CD1-47ED-B715-8773FED73F88";
paths = (
{
closed = 1;
nodes = (
"30 560 LINE",
"674 560 LINE",
"674 740 LINE",
"30 740 LINE"
);
},
{
closed = 1;
nodes = (
"470 0 LINE",
"470 740 LINE",
"234 740 LINE",
"234 0 LINE"
);
}
);
width = 704;
}
);
rightMetricsKey = "=|";
unicode = 0054;
},
{
glyphname = U;
lastChange = "2021-09-12 09:27:20 +0000";
layers = (
{
layerId = "D8D2F0D2-8948-448B-99CD-378CDFD0E0AE";
paths = (
{
closed = 1;
nodes = (
"104 96 OFFCURVE",
"209 -9 OFFCURVE",
"379 -9 CURVE SMOOTH",
"556 -9 OFFCURVE",
"653 105 OFFCURVE",
"653 294 CURVE SMOOTH",
"653 740 LINE",
"590 740 LINE",
"590 294 LINE SMOOTH",
"590 141 OFFCURVE",
"520 47 OFFCURVE",
"379 47 CURVE SMOOTH",
"245 47 OFFCURVE",
"167 133 OFFCURVE",
"167 294 CURVE SMOOTH",
"167 740 LINE",
"104 740 LINE",
"104 294 LINE SMOOTH"
);
}
);
width = 757;
},
{
layerId = "83B83716-1CD1-47ED-B715-8773FED73F88";
paths = (
{
closed = 1;
nodes = (
"60 94 OFFCURVE",
"182 -10 OFFCURVE",
"376 -10 CURVE SMOOTH",
"578 -10 OFFCURVE",
"692 104 OFFCURVE",
"692 305 CURVE SMOOTH",
"692 740 LINE",
"496 740 LINE",
"496 306 LINE SMOOTH",
"496 223 OFFCURVE",
"459 166 OFFCURVE",
"376 166 CURVE SMOOTH",
"297 166 OFFCURVE",
"256 219 OFFCURVE",
"256 306 CURVE SMOOTH",
"256 740 LINE",
"60 740 LINE",
"60 305 LINE SMOOTH"
);
}
);
width = 752;
}
);
leftMetricsKey = "=H-10";
rightMetricsKey = "=|";
unicode = 0055;
},
{
glyphname = V;
lastChange = "2025-06-05 10:11:03 +0000";
layers = (
{
layerId = "D8D2F0D2-8948-448B-99CD-378CDFD0E0AE";
paths = (
{
closed = 1;
nodes = (
"95 740 LINE",
"28 740 LINE",
"294 0 LINE",
"355 0 LINE"
);
},
{
closed = 1;
nodes = (
"361 0 LINE",
"626 740 LINE",
"560 740 LINE",
"300 0 LINE"
);
}
);
width = 655;
},
{
layerId = "83B83716-1CD1-47ED-B715-8773FED73F88";
paths = (
{
closed = 1;
nodes = (
"520 0 LINE",
"778 740 LINE",
"532 740 LINE",
"316 0 LINE"
);
},
{
closed = 1;
nodes = (
"256 740 LINE",
"10 740 LINE",
"268 0 LINE",
"472 0 LINE"
);
}
);
width = 788;
}
);
leftMetricsKey = "=A";
rightMetricsKey = "=A";
unicode = 0056;
},
{
glyphname = W;
lastChange = "2025-05-29 16:41:12 +0000";
layers = (
{
layerId = "D8D2F0D2-8948-448B-99CD-378CDFD0E0AE";
paths = (
{
closed = 1;
nodes = (
"292 0 LINE",
"482 417 LINE",
"672 0 LINE",
"733 0 LINE",
"722 22 LINE",
"482 554 LINE",
"242 22 LINE",
"231 0 LINE"
);
},
{
closed = 1;
nodes = (
"286 0 LINE",
"138 740 LINE",
"74 740 LINE",
"226 0 LINE"
);
},
{
closed = 1;
nodes = (
"738 0 LINE",
"890 740 LINE",
"826 740 LINE",
"677 0 LINE"
);
}
);
width = 964;
},
{
layerId = "83B83716-1CD1-47ED-B715-8773FED73F88";
paths = (
{
closed = 1;
nodes = (
"366 0 LINE",
"496 251 LINE",
"626 0 LINE",
"774 0 LINE",
"774 86 LINE",
"496 617 LINE",
"218 86 LINE",
"218 0 LINE"
);
},
{
closed = 1;
nodes = (
"344 0 LINE",
"238 740 LINE",
"40 740 LINE",
"170 0 LINE"
);
},
{
closed = 1;
nodes = (
"822 0 LINE",
"952 740 LINE",
"754 740 LINE",
"648 0 LINE"
);
}
);
width = 992;
},
{
associatedMasterId = "D8D2F0D2-8948-448B-99CD-378CDFD0E0AE";
layerId = "4697C7CF-CB3F-4DA3-8F3E-379320C0A47F";
name = "Aug 15 21, 19:34";
paths = (
{
closed = 1;
nodes = (
"100 780 LINE",
"30 780 LINE",
"320 0 LINE",
"384 0 LINE"
);
},
{
closed = 1;
nodes = (
"390 0 LINE",
"680 780 LINE",
"612 780 LINE",
"328 0 LINE"
);
},
{
closed = 1;
nodes = (
"402 780 LINE",
"334 780 LINE",
"624 0 LINE",
"686 0 LINE"
);
},
{
closed = 1;
nodes = (
"694 0 LINE",
"984 780 LINE",
"914 780 LINE",
"630 0 LINE"
);
}
);
width = 1014;
}
);
leftMetricsKey = "=H-40";
rightMetricsKey = "=|";
unicode = 0057;
},
{
glyphname = X;
lastChange = "2021-09-12 09:27:20 +0000";
layers = (
{
layerId = "D8D2F0D2-8948-448B-99CD-378CDFD0E0AE";
paths = (
{
closed = 1;
nodes = (
"274 370 LINE",
"35 0 LINE",
"109 0 LINE",
"334 349 LINE",
"296 349 LINE",
"521 0 LINE",
"595 0 LINE",
"356 370 LINE",
"596 740 LINE",
"521 740 LINE",
"296 390 LINE",
"334 390 LINE",
"109 740 LINE",
"34 740 LINE"
);
}
);
width = 630;
},
{
layerId = "83B83716-1CD1-47ED-B715-8773FED73F88";
paths = (
{
closed = 1;
nodes = (
"247 370 LINE",
"17 0 LINE",
"235 0 LINE",
"442 336 LINE",
"322 336 LINE",
"529 0 LINE",
"747 0 LINE",
"517 370 LINE",
"748 740 LINE",
"529 740 LINE",
"322 403 LINE",
"442 403 LINE",
"235 740 LINE",
"16 740 LINE"
);
}
);
width = 764;
}
);
rightMetricsKey = "=|";
unicode = 0058;
},
{
glyphname = Y;
lastChange = "2021-09-12 09:27:20 +0000";
layers = (
{
layerId = "D8D2F0D2-8948-448B-99CD-378CDFD0E0AE";
paths = (
{
closed = 1;
nodes = (
"92 740 LINE",
"19 740 LINE",
"290 372 LINE",
"344 399 LINE"
);
},
{
closed = 1;
nodes = (
"345 372 LINE",
"617 740 LINE",
"544 740 LINE",
"292 399 LINE"
);
},
{
closed = 1;
nodes = (
"287 389 LINE",
"287 0 LINE",
"349 0 LINE",
"349 389 LINE"
);
}
);
width = 636;
},
{
layerId = "83B83716-1CD1-47ED-B715-8773FED73F88";
paths = (
{
closed = 1;
nodes = (
"510 328 LINE",
"798 740 LINE",
"580 740 LINE",
"340 390 LINE"
);
},
{
closed = 1;
nodes = (
"248 740 LINE",
"30 740 LINE",
"318 328 LINE",
"488 390 LINE"
);
},
{
closed = 1;
nodes = (
"316 464 LINE",
"316 0 LINE",
"512 0 LINE",
"512 464 LINE"
);
}
);
width = 828;
}
);
rightMetricsKey = "=|";
unicode = 0059;
},
{
glyphname = Z;
lastChange = "2025-05-29 16:36:56 +0000";
layers = (
{
layerId = "D8D2F0D2-8948-448B-99CD-378CDFD0E0AE";
paths = (
{
closed = 1;
nodes = (
"47 683 LINE",
"466 683 LINE",
"47 0 LINE",
"566 0 LINE",
"566 57 LINE",
"148 57 LINE",
"566 740 LINE",
"47 740 LINE"
);
}
);
width = 613;
},
{
layerId = "83B83716-1CD1-47ED-B715-8773FED73F88";
paths = (
{
closed = 1;
nodes = (
"40 572 LINE",
"330 572 LINE",
"40 0 LINE",
"615 0 LINE",
"615 168 LINE",
"335 168 LINE",
"615 740 LINE",
"40 740 LINE"
);
}
);
width = 655;
},
{
associatedMasterId = "83B83716-1CD1-47ED-B715-8773FED73F88";
layerId = "ED9EEB66-792F-4D68-9CF2-6D72EBE37D20";
name = "29 mai 25 à 16:07";
paths = (
{
closed = 1;
nodes = (
"40 572 LINE",
"521 572 LINE",
"615 602 LINE",
"615 740 LINE",
"40 740 LINE"
);
},
{
closed = 1;
nodes = (
"40 0 LINE",
"615 0 LINE",
"615 168 LINE",
"130 168 LINE",
"40 138 LINE"
);
},
{
closed = 1;
nodes = (
"259 122 LINE",
"615 602 LINE",
"396 618 LINE",
"40 138 LINE"
);
}
);
width = 655;
}
);
rightMetricsKey = "=|";
unicode = 005A;
},
{
glyphname = a;
lastChange = "2025-06-05 10:01:41 +0000";
layers = (
{
associatedMasterId = "D8D2F0D2-8948-448B-99CD-378CDFD0E0AE";
layerId = "94CCDA71-E755-480C-A8CD-5980D46832D0";
name = "Aug 11 21, 19:40";
paths = (
{
closed = 1;
nodes = (
"155 447 OFFCURVE",
"205 466 OFFCURVE",
"264 466 CURVE SMOOTH",
"323 466 OFFCURVE",
"368 447 OFFCURVE",
"368 365 CURVE SMOOTH",
"368 111 LINE SMOOTH",
"368 23 OFFCURVE",
"402 -10 OFFCURVE",
"488 -1 CURVE",
"488 49 LINE",
"438 48 OFFCURVE",
"428 58 OFFCURVE",
"428 121 CURVE SMOOTH",
"428 366 LINE SMOOTH",
"428 482 OFFCURVE",
"365 520 OFFCURVE",
"269 520 CURVE SMOOTH",
"194 520 OFFCURVE",
"134 497 OFFCURVE",
"88 471 CURVE",
"103 417 LINE"
);
},
{
closed = 1;
nodes = (
"70 50 OFFCURVE",
"125 -10 OFFCURVE",
"215 -10 CURVE SMOOTH",
"287 -10 OFFCURVE",
"352 28 OFFCURVE",
"390 106 CURVE",
"368 165 LINE",
"368 94 OFFCURVE",
"296 42 OFFCURVE",
"224 42 CURVE SMOOTH",
"159 42 OFFCURVE",
"130 85 OFFCURVE",
"130 139 CURVE SMOOTH",
"130 216 OFFCURVE",
"188 267 OFFCURVE",
"389 321 CURVE",
"382 367 LINE",
"140 308 OFFCURVE",
"70 238 OFFCURVE",
"70 138 CURVE SMOOTH"
);
}
);
width = 532;
},
{
associatedMasterId = "D8D2F0D2-8948-448B-99CD-378CDFD0E0AE";
layerId = "17289B10-4F0B-4657-9C91-34F1C9B64FBB";
name = "Aug 25 21, 16:15";
paths = (
{
closed = 1;
nodes = (
"158 437 OFFCURVE",
"213 456 OFFCURVE",
"271 456 CURVE SMOOTH",
"331 456 OFFCURVE",
"368 435 OFFCURVE",
"368 365 CURVE SMOOTH",
"368 125 LINE",
"372 111 LINE",
"372 23 OFFCURVE",
"402 -12 OFFCURVE",
"492 0 CURVE",
"488 50 LINE",
"438 46 OFFCURVE",
"428 58 OFFCURVE",
"428 121 CURVE SMOOTH",
"428 366 LINE SMOOTH",
"428 472 OFFCURVE",
"372 510 OFFCURVE",
"276 510 CURVE SMOOTH",
"201 510 OFFCURVE",
"140 487 OFFCURVE",
"100 465 CURVE",
"115 411 LINE"
);
},
{
closed = 1;
nodes = (
"72 48 OFFCURVE",
"125 -10 OFFCURVE",
"215 -10 CURVE SMOOTH",
"288 -10 OFFCURVE",
"354 28 OFFCURVE",
"392 106 CURVE",
"368 167 LINE",
"368 96 OFFCURVE",
"297 44 OFFCURVE",
"224 44 CURVE SMOOTH",
"159 44 OFFCURVE",
"132 85 OFFCURVE",
"132 136 CURVE SMOOTH",
"132 216 OFFCURVE",
"200 257 OFFCURVE",
"389 310 CURVE",
"382 359 LINE",
"152 300 OFFCURVE",
"72 236 OFFCURVE",
"72 132 CURVE SMOOTH"
);
}
);
width = 534;
},
{
associatedMasterId = "D8D2F0D2-8948-448B-99CD-378CDFD0E0AE";
layerId = "CC5E7E17-F272-4A35-B6AF-AB9C011C52E0";
name = "Sep 10 21, 23:42";
paths = (
{
closed = 1;
nodes = (
"158 437 OFFCURVE",
"213 456 OFFCURVE",
"271 456 CURVE SMOOTH",
"331 456 OFFCURVE",
"368 435 OFFCURVE",
"368 365 CURVE SMOOTH",
"368 125 LINE",
"376 121 LINE",
"372 41 OFFCURVE",
"417 0 OFFCURVE",
"472 -8 CURVE",
"487 44 LINE",
"441 53 OFFCURVE",
"428 77 OFFCURVE",
"428 131 CURVE SMOOTH",
"428 366 LINE SMOOTH",
"428 472 OFFCURVE",
"372 510 OFFCURVE",
"276 510 CURVE SMOOTH",
"201 510 OFFCURVE",
"140 487 OFFCURVE",
"100 465 CURVE",
"115 411 LINE"
);
},
{
closed = 1;
nodes = (
"72 48 OFFCURVE",
"125 -10 OFFCURVE",
"215 -10 CURVE SMOOTH",
"288 -10 OFFCURVE",
"354 28 OFFCURVE",
"392 106 CURVE",
"368 167 LINE",
"368 96 OFFCURVE",
"297 44 OFFCURVE",
"224 44 CURVE SMOOTH",
"159 44 OFFCURVE",
"132 85 OFFCURVE",
"132 136 CURVE SMOOTH",
"132 216 OFFCURVE",
"200 257 OFFCURVE",
"389 310 CURVE",
"382 359 LINE",
"152 300 OFFCURVE",
"72 236 OFFCURVE",
"72 132 CURVE SMOOTH"
);
}
);
width = 534;
},
{
layerId = "D8D2F0D2-8948-448B-99CD-378CDFD0E0AE";
paths = (
{
closed = 1;
nodes = (
"438 28 OFFCURVE",
"429 80 OFFCURVE",
"429 138 CURVE SMOOTH",
"429 366 LINE SMOOTH",
"429 472 OFFCURVE",
"378 510 OFFCURVE",
"269 510 CURVE SMOOTH",
"194 510 OFFCURVE",
"98 492 OFFCURVE",
"98 445 CURVE SMOOTH",
"98 418 OFFCURVE",
"130 420 OFFCURVE",
"158 434 CURVE SMOOTH",
"181 445 OFFCURVE",
"220 456 OFFCURVE",
"266 456 CURVE SMOOTH",
"332 456 OFFCURVE",
"369 435 OFFCURVE",
"369 365 CURVE SMOOTH",
"369 167 LINE",
"376 108 LINE",
"376 67 OFFCURVE",
"385 21 OFFCURVE",
"394 0 CURVE",
"454 -1 LINE"
);
},
{
closed = 1;
nodes = (
"283 -10 OFFCURVE",
"356 25 OFFCURVE",
"384 119 CURVE",
"369 177 LINE",
"369 96 OFFCURVE",
"298 42 OFFCURVE",
"224 42 CURVE SMOOTH",
"160 42 OFFCURVE",
"133 83 OFFCURVE",
"133 130 CURVE SMOOTH",
"133 194 OFFCURVE",
"183 231 OFFCURVE",
"381 280 CURVE",
"380 327 LINE",
"155 276 OFFCURVE",
"70 220 OFFCURVE",
"70 123 CURVE SMOOTH",
"70 44 OFFCURVE",
"126 -10 OFFCURVE",
"213 -10 CURVE SMOOTH"
);
}
);
width = 534;
},
{
associatedMasterId = "83B83716-1CD1-47ED-B715-8773FED73F88";
layerId = "34A6E935-9DA3-4B68-BBE9-756AAEC44642";
name = "27 mai 25 à 15:23";
paths = (
{
closed = 1;
nodes = (
"133 352 OFFCURVE",
"200 374 OFFCURVE",
"261 374 CURVE SMOOTH",
"300 374 OFFCURVE",
"318 365 OFFCURVE",
"318 341 CURVE SMOOTH",
"318 125 LINE",
"320 101 LINE",
"330 23 OFFCURVE",
"384 -22 OFFCURVE",
"536 0 CURVE",
"530 150 LINE",
"495 146 OFFCURVE",
"484 158 OFFCURVE",
"484 201 CURVE SMOOTH",
"484 326 LINE SMOOTH",
"484 482 OFFCURVE",
"388 510 OFFCURVE",
"274 510 CURVE SMOOTH",
"173 510 OFFCURVE",
"101 488 OFFCURVE",
"45 463 CURVE",
"85 327 LINE"
);
},
{
closed = 1;
nodes = (
"30 49 OFFCURVE",
"88 -10 OFFCURVE",
"177 -10 CURVE SMOOTH",
"248 -10 OFFCURVE",
"310 28 OFFCURVE",
"338 96 CURVE",
"318 207 LINE",
"318 158 OFFCURVE",
"277 126 OFFCURVE",
"236 126 CURVE SMOOTH",
"212 126 OFFCURVE",
"200 137 OFFCURVE",
"200 155 CURVE SMOOTH",
"200 185 OFFCURVE",
"233 207 OFFCURVE",
"329 225 CURVE",
"332 341 LINE",
"112 310 OFFCURVE",
"30 247 OFFCURVE",
"30 139 CURVE SMOOTH"
);
}
);
width = 546;
},
{
layerId = "83B83716-1CD1-47ED-B715-8773FED73F88";
name = Black;
paths = (
{
closed = 1;
nodes = (
"564 40 OFFCURVE",
"554 97 OFFCURVE",
"554 181 CURVE SMOOTH",
"554 326 LINE SMOOTH",
"554 472 OFFCURVE",
"416 510 OFFCURVE",
"278 510 CURVE SMOOTH",
"157 510 OFFCURVE",
"8 493 OFFCURVE",
"8 382 CURVE SMOOTH",
"8 300 OFFCURVE",
"89 295 OFFCURVE",
"157 322 CURVE SMOOTH",
"178 331 OFFCURVE",
"228 350 OFFCURVE",
"281 350 CURVE SMOOTH",
"324 350 OFFCURVE",
"338 339 OFFCURVE",
"338 315 CURVE SMOOTH",
"338 137 LINE",
"342 101 LINE",
"343 47 OFFCURVE",
"344 15 OFFCURVE",
"353 -2 CURVE",
"582 0 LINE"
);
},
{
closed = 1;
nodes = (
"258 -10 OFFCURVE",
"326 28 OFFCURVE",
"358 96 CURVE",
"338 207 LINE",
"338 165 OFFCURVE",
"316 136 OFFCURVE",
"278 136 CURVE SMOOTH",
"257 136 OFFCURVE",
"246 145 OFFCURVE",
"246 161 CURVE SMOOTH",
"246 186 OFFCURVE",
"274 194 OFFCURVE",
"349 213 CURVE",
"351 323 LINE",
"114 292 OFFCURVE",
"10 253 OFFCURVE",
"10 134 CURVE SMOOTH",
"10 45 OFFCURVE",
"68 -10 OFFCURVE",
"174 -10 CURVE SMOOTH"
);
}
);
width = 582;
},
{
associatedMasterId = "83B83716-1CD1-47ED-B715-8773FED73F88";
layerId = "74D3D93F-304F-4C79-B31A-D002EBC9A5F6";
name = "27 mai 25 à 15:23";
paths = (
{
closed = 1;
nodes = (
"125 352 OFFCURVE",
"204 374 OFFCURVE",
"265 374 CURVE SMOOTH",
"304 374 OFFCURVE",
"318 365 OFFCURVE",
"318 341 CURVE SMOOTH",
"318 125 LINE",
"320 101 LINE",
"330 23 OFFCURVE",
"384 -22 OFFCURVE",
"536 0 CURVE",
"530 150 LINE",
"495 146 OFFCURVE",
"484 158 OFFCURVE",
"484 201 CURVE SMOOTH",
"484 326 LINE SMOOTH",
"484 472 OFFCURVE",
"408 510 OFFCURVE",
"287 510 CURVE SMOOTH",
"193 510 OFFCURVE",
"103 487 OFFCURVE",
"45 463 CURVE",
"71 329 LINE"
);
},
{
closed = 1;
nodes = (
"40 49 OFFCURVE",
"98 -10 OFFCURVE",
"187 -10 CURVE SMOOTH",
"259 -10 OFFCURVE",
"310 28 OFFCURVE",
"338 96 CURVE",
"318 207 LINE",
"318 158 OFFCURVE",
"287 126 OFFCURVE",
"246 126 CURVE SMOOTH",
"222 126 OFFCURVE",
"210 137 OFFCURVE",
"210 155 CURVE SMOOTH",
"210 185 OFFCURVE",
"242 208 OFFCURVE",
"329 229 CURVE",
"332 341 LINE",
"122 310 OFFCURVE",
"40 247 OFFCURVE",
"40 139 CURVE SMOOTH"
);
}
);
width = 546;
},
{
associatedMasterId = "83B83716-1CD1-47ED-B715-8773FED73F88";
layerId = "9CC6FA94-BDD5-4CC5-8421-A9C50DDD1B69";
name = "2 juin 25 à 13:02";
paths = (
{
closed = 1;
nodes = (
"500 -2 OFFCURVE",
"540 40 OFFCURVE",
"540 110 CURVE",
"505 106 OFFCURVE",
"484 118 OFFCURVE",
"484 161 CURVE SMOOTH",
"484 326 LINE SMOOTH",
"484 472 OFFCURVE",
"408 510 OFFCURVE",
"282 510 CURVE SMOOTH",
"128 510 OFFCURVE",
"9 457 OFFCURVE",
"59 303 CURVE",
"113 346 OFFCURVE",
"194 370 OFFCURVE",
"261 370 CURVE SMOOTH",
"306 370 OFFCURVE",
"318 359 OFFCURVE",
"318 335 CURVE SMOOTH",
"318 125 LINE",
"322 101 LINE",
"326 47 OFFCURVE",
"354 -2 OFFCURVE",
"431 -2 CURVE SMOOTH"
);
},
{
closed = 1;
nodes = (
"258 -10 OFFCURVE",
"310 28 OFFCURVE",
"338 96 CURVE",
"318 207 LINE",
"318 158 OFFCURVE",
"287 126 OFFCURVE",
"246 126 CURVE SMOOTH",
"222 126 OFFCURVE",
"210 137 OFFCURVE",
"210 155 CURVE SMOOTH",
"210 185 OFFCURVE",
"242 200 OFFCURVE",
"329 221 CURVE",
"332 331 LINE",
"122 290 OFFCURVE",
"40 243 OFFCURVE",
"40 139 CURVE SMOOTH",
"40 45 OFFCURVE",
"108 -10 OFFCURVE",
"190 -10 CURVE SMOOTH"
);
}
);
width = 546;
}
);
unicode = 0061;
},
{
glyphname = b;
lastChange = "2025-06-05 10:46:27 +0000";
layers = (
{
components = (
{
name = _panse;
}
);
layerId = "D8D2F0D2-8948-448B-99CD-378CDFD0E0AE";
paths = (
{
closed = 1;
nodes = (
"160 0 LINE",
"160 740 LINE",
"100 740 LINE",
"100 0 LINE"
);
}
);
width = 570;
},
{
components = (
{
name = _panse;
transform = "{1, 0, 0, 1, 84, 0}";
}
);
layerId = "83B83716-1CD1-47ED-B715-8773FED73F88";
paths = (
{
closed = 1;
nodes = (
"240 0 LINE",
"240 740 LINE",
"24 740 LINE",
"24 0 LINE"
);
}
);
width = 580;
}
);
leftMetricsKey = "=p";
rightMetricsKey = "=p";
unicode = 0062;
},
{
glyphname = c;
lastChange = "2025-06-05 10:48:11 +0000";
layers = (
{
layerId = "D8D2F0D2-8948-448B-99CD-378CDFD0E0AE";
paths = (
{
closed = 1;
nodes = (
"452 448 OFFCURVE",
"384 510 OFFCURVE",
"280 510 CURVE SMOOTH",
"144 510 OFFCURVE",
"56 404 OFFCURVE",
"56 240 CURVE SMOOTH",
"56 83 OFFCURVE",
"137 -10 OFFCURVE",
"287 -10 CURVE",
"290 42 LINE",
"174 42 OFFCURVE",
"116 114 OFFCURVE",
"116 242 CURVE SMOOTH",
"116 376 OFFCURVE",
"180 458 OFFCURVE",
"280 458 CURVE SMOOTH",
"331 458 OFFCURVE",
"377 436 OFFCURVE",
"402 384 CURVE SMOOTH",
"418 349 OFFCURVE",
"452 354 OFFCURVE",
"452 393 CURVE SMOOTH"
);
},
{
closed = 1;
nodes = (
"287 -10 LINE",
"358 -10 OFFCURVE",
"410 11 OFFCURVE",
"446 35 CURVE",
"446 89 LINE",
"389 56 OFFCURVE",
"341 42 OFFCURVE",
"290 42 CURVE"
);
}
);
width = 528;
},
{
layerId = "83B83716-1CD1-47ED-B715-8773FED73F88";
paths = (
{
closed = 1;
nodes = (
"534 470 OFFCURVE",
"417 510 OFFCURVE",
"298 510 CURVE SMOOTH",
"127 510 OFFCURVE",
"16 408 OFFCURVE",
"16 239 CURVE SMOOTH",
"16 79 OFFCURVE",
"117 -10 OFFCURVE",
"305 -10 CURVE",
"356 176 LINE",
"267 176 OFFCURVE",
"252 219 OFFCURVE",
"252 258 CURVE SMOOTH",
"252 298 OFFCURVE",
"268 324 OFFCURVE",
"293 324 CURVE SMOOTH",
"306 324 OFFCURVE",
"317 317 OFFCURVE",
"327 301 CURVE SMOOTH",
"375 224 OFFCURVE",
"534 246 OFFCURVE",
"534 368 CURVE SMOOTH"
);
},
{
closed = 1;
nodes = (
"305 -10 LINE",
"392 -10 OFFCURVE",
"463 9 OFFCURVE",
"508 37 CURVE",
"508 206 LINE",
"453 185 OFFCURVE",
"398 176 OFFCURVE",
"356 176 CURVE"
);
}
);
width = 540;
},
{
associatedMasterId = "D8D2F0D2-8948-448B-99CD-378CDFD0E0AE";
layerId = "4F3882DD-CD2B-4CE6-8882-E1F2A09F659C";
name = "Sep 11 21, 15:52";
paths = (
{
closed = 1;
nodes = (
"428 463 OFFCURVE",
"363 510 OFFCURVE",
"270 510 CURVE SMOOTH",
"121 510 OFFCURVE",
"46 388 OFFCURVE",
"46 237 CURVE SMOOTH",
"46 52 OFFCURVE",
"154 -10 OFFCURVE",
"265 -10 CURVE SMOOTH",
"376 -10 OFFCURVE",
"436 52 OFFCURVE",
"458 122 CURVE",
"407 139 LINE",
"388 89 OFFCURVE",
"347 42 OFFCURVE",
"266 42 CURVE SMOOTH",
"188 42 OFFCURVE",
"106 85 OFFCURVE",
"106 243 CURVE SMOOTH",
"106 387 OFFCURVE",
"175 458 OFFCURVE",
"268 458 CURVE SMOOTH",
"322 458 OFFCURVE",
"380 433 OFFCURVE",
"399 349 CURVE",
"454 368 LINE"
);
}
);
width = 518;
},
{
associatedMasterId = "83B83716-1CD1-47ED-B715-8773FED73F88";
layerId = "2CBB3263-9784-4C48-AE01-DCE386C751C9";
name = "5 juin 25 à 12:35";
paths = (
{
closed = 1;
nodes = (
"550 470 OFFCURVE",
"433 510 OFFCURVE",
"314 510 CURVE SMOOTH",
"133 510 OFFCURVE",
"22 408 OFFCURVE",
"22 239 CURVE SMOOTH",
"22 79 OFFCURVE",
"123 -10 OFFCURVE",
"306 -10 CURVE SMOOTH",
"446 -10 OFFCURVE",
"552 38 OFFCURVE",
"552 129 CURVE SMOOTH",
"552 240 OFFCURVE",
"394 247 OFFCURVE",
"356 207 CURVE SMOOTH",
"338 188 OFFCURVE",
"326 176 OFFCURVE",
"304 176 CURVE SMOOTH",
"273 176 OFFCURVE",
"258 199 OFFCURVE",
"258 248 CURVE SMOOTH",
"258 298 OFFCURVE",
"274 324 OFFCURVE",
"305 324 CURVE SMOOTH",
"321 324 OFFCURVE",
"333 317 OFFCURVE",
"343 301 CURVE SMOOTH",
"391 224 OFFCURVE",
"550 246 OFFCURVE",
"550 368 CURVE SMOOTH"
);
}
);
width = 556;
},
{
associatedMasterId = "D8D2F0D2-8948-448B-99CD-378CDFD0E0AE";
layerId = "13DA5124-1501-4532-BF0D-AFA655CB172B";
name = "5 juin 25 à 12:40";
paths = (
{
closed = 1;
nodes = (
"452 448 OFFCURVE",
"384 510 OFFCURVE",
"280 510 CURVE SMOOTH",
"144 510 OFFCURVE",
"56 404 OFFCURVE",
"56 240 CURVE SMOOTH",
"56 83 OFFCURVE",
"137 -10 OFFCURVE",
"273 -10 CURVE SMOOTH",
"391 -10 OFFCURVE",
"455 53 OFFCURVE",
"455 99 CURVE SMOOTH",
"455 128 OFFCURVE",
"429 133 OFFCURVE",
"405 100 CURVE SMOOTH",
"376 61 OFFCURVE",
"328 42 OFFCURVE",
"274 42 CURVE SMOOTH",
"174 42 OFFCURVE",
"116 114 OFFCURVE",
"116 242 CURVE SMOOTH",
"116 376 OFFCURVE",
"180 458 OFFCURVE",
"280 458 CURVE SMOOTH",
"331 458 OFFCURVE",
"377 436 OFFCURVE",
"402 384 CURVE SMOOTH",
"418 349 OFFCURVE",
"452 354 OFFCURVE",
"452 393 CURVE SMOOTH"
);
}
);
width = 528;
}
);
leftMetricsKey = "=o";
unicode = 0063;
},
{
glyphname = d;
lastChange = "2025-06-05 10:30:47 +0000";
layers = (
{
components = (
{
name = _panse;
transform = "{-1, 0, 0, -1, 570, 500}";
}
);
layerId = "D8D2F0D2-8948-448B-99CD-378CDFD0E0AE";
paths = (
{
closed = 1;
nodes = (
"410 740 LINE",
"410 0 LINE",
"470 0 LINE",
"470 740 LINE"
);
}
);
width = 570;
},
{
components = (
{
name = _panse;
transform = "{-1, 0, 0, -1, 496, 500}";
}
);
layerId = "83B83716-1CD1-47ED-B715-8773FED73F88";
paths = (
{
closed = 1;
nodes = (
"340 740 LINE",
"340 0 LINE",
"556 0 LINE",
"556 740 LINE"
);
}
);
width = 580;
}
);
leftMetricsKey = "=|p";
rightMetricsKey = "=|p";
unicode = 0064;
},
{
glyphname = e;
lastChange = "2025-06-05 10:43:29 +0000";
layers = (
{
layerId = "D8D2F0D2-8948-448B-99CD-378CDFD0E0AE";
paths = (
{
closed = 1;
nodes = (
"366 -10 OFFCURVE",
"415 11 OFFCURVE",
"446 35 CURVE",
"446 89 LINE",
"394 56 OFFCURVE",
"349 42 OFFCURVE",
"297 42 CURVE SMOOTH",
"180 42 OFFCURVE",
"116 114 OFFCURVE",
"116 245 CURVE SMOOTH",
"116 376 OFFCURVE",
"178 458 OFFCURVE",
"278 458 CURVE SMOOTH",
"364 458 OFFCURVE",
"414 397 OFFCURVE",
"414 302 CURVE",
"89 302 LINE",
"89 252 LINE",
"425 252 LINE SMOOTH",
"466 252 OFFCURVE",
"473 268 OFFCURVE",
"473 306 CURVE SMOOTH",
"473 424 OFFCURVE",
"405 510 OFFCURVE",
"281 510 CURVE SMOOTH",
"144 510 OFFCURVE",
"56 404 OFFCURVE",
"56 240 CURVE SMOOTH",
"56 83 OFFCURVE",
"140 -10 OFFCURVE",
"293 -10 CURVE SMOOTH"
);
}
);
width = 530;
},
{
associatedMasterId = "D8D2F0D2-8948-448B-99CD-378CDFD0E0AE";
layerId = "55CBF1DD-922D-4222-B261-0AAB4C75428E";
name = "Sep 11 21, 15:53";
paths = (
{
closed = 1;
nodes = (
"384 89 OFFCURVE",
"343 42 OFFCURVE",
"262 42 CURVE SMOOTH",
"184 42 OFFCURVE",
"102 85 OFFCURVE",
"102 243 CURVE SMOOTH",
"102 387 OFFCURVE",
"171 458 OFFCURVE",
"264 458 CURVE SMOOTH",
"330 458 OFFCURVE",
"400 421 OFFCURVE",
"400 292 CURVE",
"461 242 LINE",
"469 421 OFFCURVE",
"394 510 OFFCURVE",
"266 510 CURVE SMOOTH",
"117 510 OFFCURVE",
"42 388 OFFCURVE",
"42 237 CURVE SMOOTH",
"42 52 OFFCURVE",
"150 -10 OFFCURVE",
"261 -10 CURVE SMOOTH",
"372 -10 OFFCURVE",
"432 52 OFFCURVE",
"454 122 CURVE",
"403 139 LINE"
);
},
{
closed = 1;
nodes = (
"75 242 LINE",
"461 242 LINE",
"421 292 LINE",
"75 292 LINE"
);
}
);
width = 516;
},
{
associatedMasterId = "D8D2F0D2-8948-448B-99CD-378CDFD0E0AE";
layerId = "1DD948A4-6013-4B0D-A909-9A51D4833915";
name = "5 juin 25 à 12:40";
paths = (
{
closed = 1;
nodes = (
"398 -10 OFFCURVE",
"457 40 OFFCURVE",
"457 75 CURVE SMOOTH",
"457 97 OFFCURVE",
"434 101 OFFCURVE",
"413 83 CURVE SMOOTH",
"383 57 OFFCURVE",
"341 42 OFFCURVE",
"290 42 CURVE SMOOTH",
"180 42 OFFCURVE",
"116 114 OFFCURVE",
"116 245 CURVE SMOOTH",
"116 376 OFFCURVE",
"178 458 OFFCURVE",
"278 458 CURVE SMOOTH",
"364 458 OFFCURVE",
"414 397 OFFCURVE",
"414 302 CURVE",
"475 252 LINE",
"483 414 OFFCURVE",
"412 510 OFFCURVE",
"281 510 CURVE SMOOTH",
"144 510 OFFCURVE",
"56 404 OFFCURVE",
"56 240 CURVE SMOOTH",
"56 83 OFFCURVE",
"140 -10 OFFCURVE",
"288 -10 CURVE SMOOTH"
);
},
{
closed = 1;
nodes = (
"475 252 LINE",
"435 302 LINE",
"89 302 LINE",
"89 252 LINE"
);
}
);
width = 530;
},
{
associatedMasterId = "83B83716-1CD1-47ED-B715-8773FED73F88";
layerId = "49AD3F3A-8E21-4B81-9D66-388C5530FD1E";
name = "5 juin 25 à 12:43";
paths = (
{
closed = 1;
nodes = (
"448 -10 OFFCURVE",
"548 34 OFFCURVE",
"548 116 CURVE SMOOTH",
"548 171 OFFCURVE",
"503 194 OFFCURVE",
"430 169 CURVE SMOOTH",
"404 160 OFFCURVE",
"373 152 OFFCURVE",
"336 152 CURVE SMOOTH",
"258 152 OFFCURVE",
"242 186 OFFCURVE",
"242 260 CURVE SMOOTH",
"242 334 OFFCURVE",
"257 369 OFFCURVE",
"300 369 CURVE SMOOTH",
"327 369 OFFCURVE",
"343 355 OFFCURVE",
"349 324 CURVE",
"95 324 LINE",
"95 198 LINE",
"563 198 LINE",
"584 379 OFFCURVE",
"497 510 OFFCURVE",
"296 510 CURVE SMOOTH",
"118 510 OFFCURVE",
"16 408 OFFCURVE",
"16 249 CURVE SMOOTH",
"16 79 OFFCURVE",
"130 -10 OFFCURVE",
"306 -10 CURVE SMOOTH"
);
}
);
width = 574;
},
{
layerId = "83B83716-1CD1-47ED-B715-8773FED73F88";
name = Black;
paths = (
{
closed = 1;
nodes = (
"405 -10 OFFCURVE",
"484 7 OFFCURVE",
"537 41 CURVE",
"537 189 LINE",
"474 160 OFFCURVE",
"413 152 OFFCURVE",
"361 152 CURVE SMOOTH",
"258 152 OFFCURVE",
"242 186 OFFCURVE",
"242 260 CURVE SMOOTH",
"242 334 OFFCURVE",
"257 369 OFFCURVE",
"300 369 CURVE SMOOTH",
"327 369 OFFCURVE",
"343 355 OFFCURVE",
"349 324 CURVE",
"95 324 LINE",
"95 198 LINE",
"453 198 LINE SMOOTH",
"539 198 OFFCURVE",
"566 227 OFFCURVE",
"566 290 CURVE SMOOTH",
"566 403 OFFCURVE",
"478 510 OFFCURVE",
"296 510 CURVE SMOOTH",
"118 510 OFFCURVE",
"16 408 OFFCURVE",
"16 249 CURVE SMOOTH",
"16 79 OFFCURVE",
"130 -10 OFFCURVE",
"321 -10 CURVE SMOOTH"
);
}
);
width = 574;
}
);
leftMetricsKey = "=o";
unicode = 0065;
},
{
glyphname = f;
lastChange = "2025-06-05 10:52:04 +0000";
layers = (
{
layerId = "D8D2F0D2-8948-448B-99CD-378CDFD0E0AE";
paths = (
{
closed = 1;
nodes = (
"40 446 LINE",
"320 446 LINE",
"320 500 LINE",
"40 500 LINE"
);
},
{
closed = 1;
nodes = (
"190 0 LINE",
"190 600 LINE SMOOTH",
"190 666 OFFCURVE",
"221 691 OFFCURVE",
"270 691 CURVE SMOOTH",
"303 691 OFFCURVE",
"338 677 OFFCURVE",
"338 705 CURVE SMOOTH",
"338 731 OFFCURVE",
"309 746 OFFCURVE",
"266 746 CURVE SMOOTH",
"183 746 OFFCURVE",
"130 693 OFFCURVE",
"130 600 CURVE SMOOTH",
"130 0 LINE"
);
}
);
width = 342;
},
{
associatedMasterId = "83B83716-1CD1-47ED-B715-8773FED73F88";
layerId = "C93238E8-BFC3-43BE-BC26-8CE0D935A520";
name = "5 juin 25 à 12:51";
paths = (
{
closed = 1;
nodes = (
"10 330 LINE",
"327 330 LINE SMOOTH",
"414 330 OFFCURVE",
"414 500 OFFCURVE",
"327 500 CURVE SMOOTH",
"10 500 LINE"
);
},
{
closed = 1;
nodes = (
"278 0 LINE",
"278 516 LINE SMOOTH",
"278 548 OFFCURVE",
"290 561 OFFCURVE",
"321 561 CURVE SMOOTH",
"375 561 OFFCURVE",
"392 587 OFFCURVE",
"392 632 CURVE SMOOTH",
"392 711 OFFCURVE",
"338 749 OFFCURVE",
"259 749 CURVE SMOOTH",
"153 749 OFFCURVE",
"62 679 OFFCURVE",
"62 520 CURVE SMOOTH",
"62 0 LINE"
);
}
);
width = 376;
},
{
layerId = "83B83716-1CD1-47ED-B715-8773FED73F88";
name = Black;
paths = (
{
closed = 1;
nodes = (
"10 330 LINE",
"376 330 LINE",
"376 500 LINE",
"10 500 LINE"
);
},
{
closed = 1;
nodes = (
"278 0 LINE",
"278 516 LINE SMOOTH",
"278 548 OFFCURVE",
"290 561 OFFCURVE",
"321 561 CURVE SMOOTH",
"375 561 OFFCURVE",
"392 587 OFFCURVE",
"392 632 CURVE SMOOTH",
"392 711 OFFCURVE",
"338 749 OFFCURVE",
"259 749 CURVE SMOOTH",
"153 749 OFFCURVE",
"62 679 OFFCURVE",
"62 520 CURVE SMOOTH",
"62 0 LINE"
);
}
);
width = 386;
}
);
unicode = 0066;
},
{
glyphname = g;
lastChange = "2025-06-05 08:49:28 +0000";
layers = (
{
layerId = "83B83716-1CD1-47ED-B715-8773FED73F88";
paths = (
{
closed = 1;
nodes = (
"94 -10 OFFCURVE",
"48 -33 OFFCURVE",
"48 -94 CURVE SMOOTH",
"48 -165 OFFCURVE",
"110 -210 OFFCURVE",
"258 -210 CURVE SMOOTH",
"423 -210 OFFCURVE",
"556 -154 OFFCURVE",
"556 41 CURVE SMOOTH",
"556 480 LINE",
"340 500 LINE",
"340 51 LINE SMOOTH",
"340 -11 OFFCURVE",
"321 -40 OFFCURVE",
"242 -40 CURVE SMOOTH",
"212 -40 OFFCURVE",
"186 -36 OFFCURVE",
"162 -29 CURVE SMOOTH"
);
},
{
closed = 1;
nodes = (
"340 227 LINE",
"340 194 OFFCURVE",
"318 177 OFFCURVE",
"296 177 CURVE SMOOTH",
"275 177 OFFCURVE",
"248 193 OFFCURVE",
"248 249 CURVE SMOOTH",
"248 302 OFFCURVE",
"273 325 OFFCURVE",
"315 325 CURVE SMOOTH",
"341 325 OFFCURVE",
"370 316 OFFCURVE",
"398 297 CURVE",
"556 480 LINE",
"478 498 OFFCURVE",
"397 508 OFFCURVE",
"326 508 CURVE SMOOTH",
"96 508 OFFCURVE",
"22 401 OFFCURVE",
"22 234 CURVE SMOOTH",
"22 64 OFFCURVE",
"111 -8 OFFCURVE",
"212 -8 CURVE SMOOTH",
"284 -8 OFFCURVE",
"332 28 OFFCURVE",
"360 106 CURVE"
);
}
);
width = 580;
},
{
associatedMasterId = "D8D2F0D2-8948-448B-99CD-378CDFD0E0AE";
components = (
{
name = _panse;
transform = "{-1, 0, 0, -1, 562, 500}";
}
);
layerId = "9951E362-21EF-4A12-AD06-6884072DEE0C";
name = "Sep 11 21, 15:49";
paths = (
{
closed = 1;
nodes = (
"110 -187 OFFCURVE",
"181 -210 OFFCURVE",
"259 -210 CURVE SMOOTH",
"385 -210 OFFCURVE",
"462 -150 OFFCURVE",
"462 -15 CURVE SMOOTH",
"462 500 LINE",
"402 500 LINE",
"402 -15 LINE SMOOTH",
"402 -125 OFFCURVE",
"346 -156 OFFCURVE",
"261 -156 CURVE SMOOTH",
"191 -156 OFFCURVE",
"137 -135 OFFCURVE",
"91 -110 CURVE",
"71 -165 LINE"
);
}
);
width = 562;
},
{
layerId = "D8D2F0D2-8948-448B-99CD-378CDFD0E0AE";
paths = (
{
closed = 1;
nodes = (
"103 -105 OFFCURVE",
"87 -123 OFFCURVE",
"87 -140 CURVE SMOOTH",
"87 -174 OFFCURVE",
"152 -210 OFFCURVE",
"259 -210 CURVE SMOOTH",
"395 -210 OFFCURVE",
"462 -150 OFFCURVE",
"462 -15 CURVE SMOOTH",
"462 488 LINE",
"402 490 LINE",
"402 -15 LINE SMOOTH",
"402 -125 OFFCURVE",
"332 -156 OFFCURVE",
"258 -156 CURVE SMOOTH",
"219 -156 OFFCURVE",
"185 -146 OFFCURVE",
"155 -131 CURVE SMOOTH"
);
},
{
closed = 1;
nodes = (
"402 165 LINE",
"402 94 OFFCURVE",
"333 46 OFFCURVE",
"265 46 CURVE SMOOTH",
"198 46 OFFCURVE",
"124 93 OFFCURVE",
"124 240 CURVE SMOOTH",
"124 393 OFFCURVE",
"206 452 OFFCURVE",
"318 452 CURVE SMOOTH",
"357 452 OFFCURVE",
"396 445 OFFCURVE",
"446 434 CURVE",
"462 488 LINE",
"397 500 OFFCURVE",
"350 504 OFFCURVE",
"317 504 CURVE SMOOTH",
"148 504 OFFCURVE",
"60 398 OFFCURVE",
"60 237 CURVE SMOOTH",
"60 62 OFFCURVE",
"160 -10 OFFCURVE",
"256 -10 CURVE SMOOTH",
"326 -10 OFFCURVE",
"388 28 OFFCURVE",
"426 116 CURVE"
);
}
);
width = 562;
},
{
associatedMasterId = "83B83716-1CD1-47ED-B715-8773FED73F88";
components = (
{
name = _panse;
transform = "{-1, 0, 0, -1, 516, 500}";
}
);
layerId = "8E8178CA-F0A5-4FC9-9C78-659296BAC498";
name = "29 mai 25 à 16:15";
paths = (
{
closed = 1;
nodes = (
"58 -96 OFFCURVE",
"63 -210 OFFCURVE",
"268 -210 CURVE SMOOTH",
"413 -210 OFFCURVE",
"526 -154 OFFCURVE",
"526 21 CURVE SMOOTH",
"526 500 LINE",
"360 500 LINE",
"360 21 LINE SMOOTH",
"360 -41 OFFCURVE",
"323 -70 OFFCURVE",
"246 -70 CURVE SMOOTH",
"188 -70 OFFCURVE",
"128 -54 OFFCURVE",
"73 -29 CURVE"
);
}
);
width = 586;
}
);
leftMetricsKey = "=|p";
rightMetricsKey = "=|n";
unicode = 0067;
},
{
glyphname = h;
lastChange = "2025-06-05 10:02:42 +0000";
layers = (
{
layerId = "D8D2F0D2-8948-448B-99CD-378CDFD0E0AE";
paths = (
{
closed = 1;
nodes = (
"160 0 LINE",
"160 740 LINE",
"100 740 LINE",
"100 0 LINE"
);
},
{
closed = 1;
nodes = (
"472 0 LINE",
"472 348 LINE SMOOTH",
"472 453 OFFCURVE",
"411 508 OFFCURVE",
"323 510 CURVE SMOOTH",
"245 512 OFFCURVE",
"174 472 OFFCURVE",
"136 384 CURVE",
"160 335 LINE",
"160 406 OFFCURVE",
"232 454 OFFCURVE",
"307 454 CURVE SMOOTH",
"375 454 OFFCURVE",
"412 415 OFFCURVE",
"412 335 CURVE SMOOTH",
"412 0 LINE"
);
}
);
width = 562;
},
{
layerId = "83B83716-1CD1-47ED-B715-8773FED73F88";
paths = (
{
closed = 1;
nodes = (
"540 0 LINE",
"540 318 LINE SMOOTH",
"540 453 OFFCURVE",
"478 510 OFFCURVE",
"383 510 CURVE SMOOTH",
"305 510 OFFCURVE",
"248 472 OFFCURVE",
"220 394 CURVE",
"240 241 LINE",
"240 284 OFFCURVE",
"261 308 OFFCURVE",
"286 308 CURVE SMOOTH",
"308 308 OFFCURVE",
"324 291 OFFCURVE",
"324 243 CURVE SMOOTH",
"324 0 LINE"
);
},
{
closed = 1;
nodes = (
"240 0 LINE",
"240 740 LINE",
"24 740 LINE",
"24 0 LINE"
);
}
);
width = 576;
}
);
leftMetricsKey = "=n";
rightMetricsKey = "=n";
unicode = 0068;
},
{
glyphname = idotless;
lastChange = "2025-06-05 08:43:36 +0000";
layers = (
{
anchors = (
{
name = bottom;
position = "{130, 0}";
},
{
name = ogonek;
position = "{234, 10}";
},
{
name = top;
position = "{130, 500}";
}
);
layerId = "D8D2F0D2-8948-448B-99CD-378CDFD0E0AE";
paths = (
{
closed = 1;
nodes = (
"160 0 LINE",
"160 500 LINE",
"140 500 OFFCURVE",
"120 500 OFFCURVE",
"100 500 CURVE",
"100 0 LINE"
);
}
);
width = 260;
},
{
anchors = (
{
name = bottom;
position = "{148, 0}";
},
{
name = ogonek;
position = "{148, 0}";
},
{
name = top;
position = "{148, 500}";
}
);
layerId = "83B83716-1CD1-47ED-B715-8773FED73F88";
paths = (
{
closed = 1;
nodes = (
"256 0 LINE",
"256 506 LINE",
"184 482 OFFCURVE",
"112 482 OFFCURVE",
"40 506 CURVE",
"40 0 LINE"
);
}
);
width = 286;
}
);
leftMetricsKey = "=n";
rightMetricsKey = "=|";
unicode = 0131;
},
{
glyphname = jdotless;
lastChange = "2025-06-05 09:39:06 +0000";
layers = (
{
anchors = (
{
name = top;
position = "{130, 500}";
}
);
layerId = "D8D2F0D2-8948-448B-99CD-378CDFD0E0AE";
paths = (
{
closed = 1;
nodes = (
"140 500 OFFCURVE",
"120 500 OFFCURVE",
"100 500 CURVE",
"100 -54 LINE SMOOTH",
"100 -120 OFFCURVE",
"69 -145 OFFCURVE",
"20 -145 CURVE SMOOTH",
"-13 -145 OFFCURVE",
"-48 -131 OFFCURVE",
"-48 -159 CURVE SMOOTH",
"-48 -185 OFFCURVE",
"-19 -200 OFFCURVE",
"25 -200 CURVE SMOOTH",
"107 -200 OFFCURVE",
"160 -147 OFFCURVE",
"160 -54 CURVE SMOOTH",
"160 500 LINE"
);
}
);
width = 260;
},
{
anchors = (
{
name = top;
position = "{132, 500}";
}
);
layerId = "83B83716-1CD1-47ED-B715-8773FED73F88";
paths = (
{
closed = 1;
nodes = (
"168 482 OFFCURVE",
"96 482 OFFCURVE",
"24 506 CURVE",
"24 23 LINE SMOOTH",
"24 -9 OFFCURVE",
"12 -22 OFFCURVE",
"-19 -22 CURVE SMOOTH",
"-73 -22 OFFCURVE",
"-90 -48 OFFCURVE",
"-90 -93 CURVE SMOOTH",
"-90 -172 OFFCURVE",
"-36 -210 OFFCURVE",
"43 -210 CURVE SMOOTH",
"149 -210 OFFCURVE",
"240 -140 OFFCURVE",
"240 19 CURVE SMOOTH",
"240 506 LINE"
);
}
);
width = 264;
}
);
rightMetricsKey = "=|n";
unicode = 0237;
},
{
glyphname = k;
lastChange = "2021-09-12 09:01:55 +0000";
layers = (
{
layerId = "D8D2F0D2-8948-448B-99CD-378CDFD0E0AE";
paths = (
{
closed = 1;
nodes = (
"160 0 LINE",
"160 740 LINE",
"100 740 LINE",
"100 0 LINE"
);
},
{
closed = 1;
nodes = (
"456 500 LINE",
"380 500 LINE",
"117 208 LINE",
"160 176 LINE"
);
},
{
closed = 1;
nodes = (
"201 272 LINE",
"407 0 LINE",
"482 0 LINE",
"254 302 LINE"
);
}
);
width = 502;
},
{
layerId = "83B83716-1CD1-47ED-B715-8773FED73F88";
paths = (
{
closed = 1;
nodes = (
"226 0 LINE",
"226 740 LINE",
"60 740 LINE",
"60 0 LINE"
);
},
{
closed = 1;
nodes = (
"572 500 LINE",
"370 500 LINE",
"113 208 LINE",
"185 96 LINE"
);
},
{
closed = 1;
nodes = (
"221 272 LINE",
"386 0 LINE",
"580 0 LINE",
"355 344 LINE"
);
}
);
width = 590;
}
);
leftMetricsKey = "=l";
unicode = 006B;
},
{
glyphname = l;
lastChange = "2025-06-05 10:30:40 +0000";
layers = (
{
layerId = "D8D2F0D2-8948-448B-99CD-378CDFD0E0AE";
paths = (
{
closed = 1;
nodes = (
"160 0 LINE",
"160 740 LINE",
"100 740 LINE",
"100 0 LINE"
);
}
);
width = 260;
},
{
layerId = "83B83716-1CD1-47ED-B715-8773FED73F88";
paths = (
{
closed = 1;
nodes = (
"240 0 LINE",
"240 740 LINE",
"24 740 LINE",
"24 0 LINE"
);
}
);
width = 264;
},
{
associatedMasterId = "83B83716-1CD1-47ED-B715-8773FED73F88";
layerId = "6D3F560B-3F5A-40CB-8D8B-DE4C5B09AF18";
name = "5 juin 25 à 12:30";
paths = (
{
closed = 1;
nodes = (
"240 310 LINE",
"240 740 LINE",
"24 740 LINE",
"24 310 LINE"
);
},
{
closed = 1;
nodes = (
"24 180 LINE SMOOTH",
"24 58 OFFCURVE",
"82 -9 OFFCURVE",
"184 -9 CURVE SMOOTH",
"249 -9 OFFCURVE",
"320 19 OFFCURVE",
"320 107 CURVE SMOOTH",
"320 140 OFFCURVE",
"310 176 OFFCURVE",
"270 176 CURVE SMOOTH",
"254 176 OFFCURVE",
"240 182 OFFCURVE",
"240 222 CURVE SMOOTH",
"240 590 LINE",
"24 590 LINE"
);
}
);
width = 320;
}
);
leftMetricsKey = "=n";
rightMetricsKey = "=|";
unicode = 006C;
},
{
glyphname = m;
lastChange = "2025-06-05 10:01:13 +0000";
layers = (
{
layerId = "D8D2F0D2-8948-448B-99CD-378CDFD0E0AE";
paths = (
{
closed = 1;
nodes = (
"462 0 LINE",
"462 348 LINE SMOOTH",
"462 453 OFFCURVE",
"402 510 OFFCURVE",
"315 510 CURVE SMOOTH",
"244 510 OFFCURVE",
"174 472 OFFCURVE",
"136 384 CURVE",
"160 335 LINE",
"160 406 OFFCURVE",
"230 454 OFFCURVE",
"302 454 CURVE SMOOTH",
"367 454 OFFCURVE",
"402 415 OFFCURVE",
"402 335 CURVE SMOOTH",
"402 0 LINE"
);
},
{
closed = 1;
nodes = (
"160 0 LINE",
"160 500 LINE",
"100 500 LINE",
"100 0 LINE"
);
},
{
closed = 1;
nodes = (
"764 0 LINE",
"764 348 LINE SMOOTH",
"764 453 OFFCURVE",
"704 510 OFFCURVE",
"617 510 CURVE SMOOTH",
"546 510 OFFCURVE",
"476 472 OFFCURVE",
"438 384 CURVE",
"462 335 LINE",
"462 406 OFFCURVE",
"532 454 OFFCURVE",
"604 454 CURVE SMOOTH",
"669 454 OFFCURVE",
"704 415 OFFCURVE",
"704 335 CURVE SMOOTH",
"704 0 LINE"
);
}
);
width = 854;
},
{
layerId = "83B83716-1CD1-47ED-B715-8773FED73F88";
paths = (
{
closed = 1;
nodes = (
"536 0 LINE",
"536 318 LINE SMOOTH",
"536 453 OFFCURVE",
"474 510 OFFCURVE",
"379 510 CURVE SMOOTH",
"301 510 OFFCURVE",
"248 472 OFFCURVE",
"220 394 CURVE",
"240 241 LINE",
"240 284 OFFCURVE",
"259 308 OFFCURVE",
"284 308 CURVE SMOOTH",
"305 308 OFFCURVE",
"320 291 OFFCURVE",
"320 243 CURVE SMOOTH",
"320 0 LINE"
);
},
{
closed = 1;
nodes = (
"240 0 LINE",
"240 500 LINE",
"24 500 LINE",
"24 0 LINE"
);
},
{
closed = 1;
nodes = (
"832 0 LINE",
"832 318 LINE SMOOTH",
"832 453 OFFCURVE",
"770 510 OFFCURVE",
"675 510 CURVE SMOOTH",
"597 510 OFFCURVE",
"524 472 OFFCURVE",
"486 394 CURVE",
"536 241 LINE",
"536 284 OFFCURVE",
"555 308 OFFCURVE",
"580 308 CURVE SMOOTH",
"601 308 OFFCURVE",
"616 291 OFFCURVE",
"616 243 CURVE SMOOTH",
"616 0 LINE"
);
}
);
width = 848;
}
);
leftMetricsKey = "=n";
rightMetricsKey = "=n";
unicode = 006D;
},
{
glyphname = n;
lastChange = "2025-06-05 08:48:19 +0000";
layers = (
{
layerId = "D8D2F0D2-8948-448B-99CD-378CDFD0E0AE";
paths = (
{
closed = 1;
nodes = (
"472 0 LINE",
"472 348 LINE SMOOTH",
"472 453 OFFCURVE",
"411 508 OFFCURVE",
"323 510 CURVE SMOOTH",
"245 512 OFFCURVE",
"174 472 OFFCURVE",
"136 384 CURVE",
"160 335 LINE",
"160 406 OFFCURVE",
"232 454 OFFCURVE",
"307 454 CURVE SMOOTH",
"375 454 OFFCURVE",
"412 415 OFFCURVE",
"412 335 CURVE SMOOTH",
"412 0 LINE"
);
},
{
closed = 1;
nodes = (
"160 0 LINE",
"160 500 LINE",
"100 500 LINE",
"100 0 LINE"
);
}
);
width = 562;
},
{
associatedMasterId = "D8D2F0D2-8948-448B-99CD-378CDFD0E0AE";
layerId = "30D0AD92-E07E-4A8A-AFE4-26D7A8370F62";
name = "Aug 11 21, 17:18";
paths = (
{
closed = 1;
nodes = (
"472 0 LINE",
"472 348 LINE SMOOTH",
"472 453 OFFCURVE",
"416 510 OFFCURVE",
"324 510 CURVE SMOOTH",
"249 510 OFFCURVE",
"180 472 OFFCURVE",
"132 394 CURVE",
"160 374 LINE",
"201 428 OFFCURVE",
"257 454 OFFCURVE",
"312 454 CURVE SMOOTH",
"379 454 OFFCURVE",
"412 415 OFFCURVE",
"412 335 CURVE SMOOTH",
"412 0 LINE"
);
},
{
closed = 1;
nodes = (
"160 0 LINE",
"160 500 LINE",
"100 500 LINE",
"100 0 LINE"
);
}
);
width = 562;
},
{
layerId = "83B83716-1CD1-47ED-B715-8773FED73F88";
paths = (
{
closed = 1;
nodes = (
"540 0 LINE",
"540 318 LINE SMOOTH",
"540 453 OFFCURVE",
"478 510 OFFCURVE",
"383 510 CURVE SMOOTH",
"305 510 OFFCURVE",
"248 472 OFFCURVE",
"220 394 CURVE",
"240 241 LINE",
"240 284 OFFCURVE",
"261 308 OFFCURVE",
"286 308 CURVE SMOOTH",
"308 308 OFFCURVE",
"324 291 OFFCURVE",
"324 243 CURVE SMOOTH",
"324 0 LINE"
);
},
{
closed = 1;
nodes = (
"240 0 LINE",
"240 500 LINE",
"24 500 LINE",
"24 0 LINE"
);
}
);
width = 556;
}
);
unicode = 006E;
},
{
glyphname = o;
lastChange = "2025-06-05 08:47:23 +0000";
layers = (
{
layerId = "D8D2F0D2-8948-448B-99CD-378CDFD0E0AE";
paths = (
{
closed = 1;
nodes = (
"56 87 OFFCURVE",
"139 -10 OFFCURVE",
"271 -10 CURVE SMOOTH",
"408 -10 OFFCURVE",
"496 95 OFFCURVE",
"496 256 CURVE SMOOTH",
"496 413 OFFCURVE",
"413 510 OFFCURVE",
"281 510 CURVE SMOOTH",
"144 510 OFFCURVE",
"56 405 OFFCURVE",
"56 244 CURVE SMOOTH"
);
},
{
closed = 1;
nodes = (
"118 378 OFFCURVE",
"179 458 OFFCURVE",
"279 458 CURVE SMOOTH",
"376 458 OFFCURVE",
"434 381 OFFCURVE",
"434 253 CURVE SMOOTH",
"434 122 OFFCURVE",
"373 42 OFFCURVE",
"273 42 CURVE SMOOTH",
"176 42 OFFCURVE",
"118 119 OFFCURVE",
"118 247 CURVE SMOOTH"
);
}
);
width = 552;
},
{
layerId = "83B83716-1CD1-47ED-B715-8773FED73F88";
paths = (
{
closed = 1;
nodes = (
"16 86 OFFCURVE",
"114 -10 OFFCURVE",
"286 -10 CURVE SMOOTH",
"466 -10 OFFCURVE",
"574 94 OFFCURVE",
"574 258 CURVE SMOOTH",
"574 414 OFFCURVE",
"476 510 OFFCURVE",
"305 510 CURVE SMOOTH",
"124 510 OFFCURVE",
"16 406 OFFCURVE",
"16 241 CURVE SMOOTH"
);
},
{
closed = 1;
nodes = (
"244 299 OFFCURVE",
"264 326 OFFCURVE",
"296 326 CURVE SMOOTH",
"327 326 OFFCURVE",
"346 300 OFFCURVE",
"346 252 CURVE SMOOTH",
"346 201 OFFCURVE",
"326 174 OFFCURVE",
"294 174 CURVE SMOOTH",
"263 174 OFFCURVE",
"244 200 OFFCURVE",
"244 248 CURVE SMOOTH"
);
}
);
width = 590;
},
{
associatedMasterId = "D8D2F0D2-8948-448B-99CD-378CDFD0E0AE";
layerId = "0DCA402F-CCFE-40A6-8C45-36FD42F23271";
name = "Sep 11 21, 15:54";
paths = (
{
closed = 1;
nodes = (
"46 83 OFFCURVE",
"133 -10 OFFCURVE",
"262 -10 CURVE SMOOTH",
"396 -10 OFFCURVE",
"486 92 OFFCURVE",
"486 257 CURVE SMOOTH",
"486 417 OFFCURVE",
"399 510 OFFCURVE",
"270 510 CURVE SMOOTH",
"136 510 OFFCURVE",
"46 408 OFFCURVE",
"46 243 CURVE SMOOTH"
);
},
{
closed = 1;
nodes = (
"108 381 OFFCURVE",
"172 458 OFFCURVE",
"269 458 CURVE SMOOTH",
"365 458 OFFCURVE",
"424 382 OFFCURVE",
"424 253 CURVE SMOOTH",
"424 119 OFFCURVE",
"360 42 OFFCURVE",
"263 42 CURVE SMOOTH",
"167 42 OFFCURVE",
"108 118 OFFCURVE",
"108 247 CURVE SMOOTH"
);
}
);
width = 532;
}
);
rightMetricsKey = "=|";
unicode = 006F;
},
{
glyphname = p;
lastChange = "2025-06-05 08:48:28 +0000";
layers = (
{
components = (
{
name = _panse;
}
);
layerId = "D8D2F0D2-8948-448B-99CD-378CDFD0E0AE";
paths = (
{
closed = 1;
nodes = (
"160 -200 LINE",
"160 500 LINE",
"100 500 LINE",
"100 -200 LINE"
);
}
);
width = 570;
},
{
components = (
{
name = _panse;
transform = "{1, 0, 0, 1, 84, 0}";
}
);
layerId = "83B83716-1CD1-47ED-B715-8773FED73F88";
paths = (
{
closed = 1;
nodes = (
"240 -200 LINE",
"240 500 LINE",
"24 500 LINE",
"24 -200 LINE"
);
}
);
width = 580;
}
);
leftMetricsKey = "=n";
unicode = 0070;
},
{
glyphname = q;
lastChange = "2025-06-05 08:48:25 +0000";
layers = (
{
components = (
{
name = _panse;
transform = "{-1, 0, 0, -1, 562, 500}";
}
);
layerId = "D8D2F0D2-8948-448B-99CD-378CDFD0E0AE";
paths = (
{
closed = 1;
nodes = (
"402 500 LINE",
"402 -200 LINE",
"462 -200 LINE",
"462 500 LINE"
);
}
);
width = 562;
},
{
components = (
{
name = _panse;
transform = "{-1, 0, 0, -1, 496, 500}";
}
);
layerId = "83B83716-1CD1-47ED-B715-8773FED73F88";
paths = (
{
closed = 1;
nodes = (
"340 500 LINE",
"340 -200 LINE",
"556 -200 LINE",
"556 500 LINE"
);
}
);
width = 580;
}
);
leftMetricsKey = "=|p";
rightMetricsKey = "=|n";
unicode = 0071;
},
{
glyphname = r;
lastChange = "2025-06-05 07:53:34 +0000";
layers = (
{
layerId = "D8D2F0D2-8948-448B-99CD-378CDFD0E0AE";
paths = (
{
closed = 1;
nodes = (
"314 460 OFFCURVE",
"314 477 CURVE SMOOTH",
"314 495 OFFCURVE",
"303 508 OFFCURVE",
"277 508 CURVE SMOOTH",
"232 508 OFFCURVE",
"173 469 OFFCURVE",
"146 394 CURVE",
"160 335 LINE",
"160 393 OFFCURVE",
"197 447 OFFCURVE",
"273 447 CURVE SMOOTH",
"305 447 OFFCURVE"
);
},
{
closed = 1;
nodes = (
"160 0 LINE",
"160 500 LINE",
"100 500 LINE",
"100 0 LINE"
);
}
);
width = 350;
},
{
layerId = "83B83716-1CD1-47ED-B715-8773FED73F88";
paths = (
{
closed = 1;
nodes = (
"410 168 OFFCURVE",
"410 380 CURVE SMOOTH",
"410 463 OFFCURVE",
"373 510 OFFCURVE",
"328 510 CURVE SMOOTH",
"282 510 OFFCURVE",
"240 461 OFFCURVE",
"226 394 CURVE",
"236 195 LINE",
"236 383 OFFCURVE"
);
},
{
closed = 1;
nodes = (
"236 0 LINE",
"236 500 LINE",
"20 500 LINE",
"20 0 LINE"
);
}
);
width = 416;
}
);
leftMetricsKey = "=n";
unicode = 0072;
},
{
glyphname = s;
lastChange = "2025-06-05 10:53:27 +0000";
layers = (
{
guideLines = (
{
angle = 220.9144;
position = "{254, 375}";
}
);
layerId = "D8D2F0D2-8948-448B-99CD-378CDFD0E0AE";
paths = (
{
closed = 1;
nodes = (
"41 67 OFFCURVE",
"77 -10 OFFCURVE",
"217 -10 CURVE SMOOTH",
"333 -10 OFFCURVE",
"386 50 OFFCURVE",
"386 129 CURVE SMOOTH",
"386 294 OFFCURVE",
"116 256 OFFCURVE",
"116 377 CURVE SMOOTH",
"116 419 OFFCURVE",
"148 460 OFFCURVE",
"217 460 CURVE SMOOTH",
"266 460 OFFCURVE",
"323 439 OFFCURVE",
"353 394 CURVE",
"379 454 OFFCURVE",
"330 510 OFFCURVE",
"226 510 CURVE SMOOTH",
"118 510 OFFCURVE",
"58 448 OFFCURVE",
"58 371 CURVE SMOOTH",
"58 206 OFFCURVE",
"328 244 OFFCURVE",
"328 123 CURVE SMOOTH",
"328 78 OFFCURVE",
"292 40 OFFCURVE",
"218 40 CURVE SMOOTH",
"163 40 OFFCURVE",
"112 61 OFFCURVE",
"64 112 CURVE"
);
}
);
width = 426;
},
{
associatedMasterId = "D8D2F0D2-8948-448B-99CD-378CDFD0E0AE";
layerId = "C761C3B0-11A6-42B5-A1D5-C1338B683BD5";
name = "Aug 25 21, 16:11";
paths = (
{
closed = 1;
nodes = (
"65 34 OFFCURVE",
"123 -10 OFFCURVE",
"215 -10 CURVE SMOOTH",
"323 -10 OFFCURVE",
"386 50 OFFCURVE",
"386 129 CURVE SMOOTH",
"386 294 OFFCURVE",
"116 256 OFFCURVE",
"116 377 CURVE SMOOTH",
"116 419 OFFCURVE",
"148 460 OFFCURVE",
"217 460 CURVE SMOOTH",
"281 460 OFFCURVE",
"310 425 OFFCURVE",
"327 373 CURVE",
"382 392 LINE",
"357 466 OFFCURVE",
"302 510 OFFCURVE",
"218 510 CURVE SMOOTH",
"118 510 OFFCURVE",
"58 448 OFFCURVE",
"58 371 CURVE SMOOTH",
"58 206 OFFCURVE",
"328 244 OFFCURVE",
"328 123 CURVE SMOOTH",
"328 78 OFFCURVE",
"292 40 OFFCURVE",
"217 40 CURVE SMOOTH",
"145 40 OFFCURVE",
"112 75 OFFCURVE",
"95 127 CURVE",
"40 108 LINE"
);
}
);
width = 426;
},
{
guideLines = (
{
angle = 220.9144;
position = "{463, 389}";
}
);
layerId = "83B83716-1CD1-47ED-B715-8773FED73F88";
paths = (
{
closed = 1;
nodes = (
"401 -10 OFFCURVE",
"494 60 OFFCURVE",
"494 164 CURVE SMOOTH",
"494 336 OFFCURVE",
"237 318 OFFCURVE",
"237 365 CURVE SMOOTH",
"237 375 OFFCURVE",
"248 382 OFFCURVE",
"267 382 CURVE SMOOTH",
"322 382 OFFCURVE",
"365 328 OFFCURVE",
"422 328 CURVE SMOOTH",
"460 328 OFFCURVE",
"487 351 OFFCURVE",
"487 392 CURVE SMOOTH",
"487 465 OFFCURVE",
"405 510 OFFCURVE",
"273 510 CURVE SMOOTH",
"105 510 OFFCURVE",
"9 438 OFFCURVE",
"9 333 CURVE SMOOTH",
"9 164 OFFCURVE",
"266 182 OFFCURVE",
"266 134 CURVE SMOOTH",
"266 124 OFFCURVE",
"255 118 OFFCURVE",
"231 118 CURVE SMOOTH",
"193 118 OFFCURVE",
"130 132 OFFCURVE",
"23 192 CURVE",
"23 34 LINE",
"91 2 OFFCURVE",
"157 -10 OFFCURVE",
"228 -10 CURVE SMOOTH"
);
}
);
width = 500;
},
{
associatedMasterId = "83B83716-1CD1-47ED-B715-8773FED73F88";
guideLines = (
{
angle = 220.9144;
position = "{463, 389}";
}
);
layerId = "11B09AE7-D3D8-49B7-BBD7-E88E6F8FA016";
name = "5 juin 25 à 12:52";
paths = (
{
closed = 1;
nodes = (
"401 -10 OFFCURVE",
"494 60 OFFCURVE",
"494 164 CURVE SMOOTH",
"494 336 OFFCURVE",
"237 318 OFFCURVE",
"237 365 CURVE SMOOTH",
"237 375 OFFCURVE",
"248 382 OFFCURVE",
"267 382 CURVE SMOOTH",
"322 382 OFFCURVE",
"365 328 OFFCURVE",
"422 328 CURVE SMOOTH",
"460 328 OFFCURVE",
"487 351 OFFCURVE",
"487 392 CURVE SMOOTH",
"487 465 OFFCURVE",
"405 510 OFFCURVE",
"273 510 CURVE SMOOTH",
"105 510 OFFCURVE",
"9 438 OFFCURVE",
"9 333 CURVE SMOOTH",
"9 164 OFFCURVE",
"266 182 OFFCURVE",
"266 134 CURVE SMOOTH",
"266 124 OFFCURVE",
"255 118 OFFCURVE",
"235 118 CURVE SMOOTH",
"173 118 OFFCURVE",
"130 172 OFFCURVE",
"73 172 CURVE SMOOTH",
"35 172 OFFCURVE",
"8 149 OFFCURVE",
"8 108 CURVE SMOOTH",
"8 35 OFFCURVE",
"90 -10 OFFCURVE",
"228 -10 CURVE SMOOTH"
);
}
);
width = 500;
}
);
unicode = 0073;
},
{
glyphname = t;
lastChange = "2025-06-05 10:51:56 +0000";
layers = (
{
layerId = "D8D2F0D2-8948-448B-99CD-378CDFD0E0AE";
paths = (
{
closed = 1;
nodes = (
"50 446 LINE",
"320 446 LINE",
"320 500 LINE",
"50 500 LINE"
);
},
{
closed = 1;
nodes = (
"130 130 LINE SMOOTH",
"130 37 OFFCURVE",
"174 -6 OFFCURVE",
"245 -6 CURVE SMOOTH",
"288 -6 OFFCURVE",
"320 8 OFFCURVE",
"320 34 CURVE SMOOTH",
"320 60 OFFCURVE",
"289 48 OFFCURVE",
"254 48 CURVE SMOOTH",
"208 48 OFFCURVE",
"190 78 OFFCURVE",
"190 152 CURVE SMOOTH",
"190 600 LINE",
"130 600 LINE"
);
}
);
width = 352;
},
{
layerId = "83B83716-1CD1-47ED-B715-8773FED73F88";
paths = (
{
closed = 1;
nodes = (
"10 330 LINE",
"374 330 LINE",
"374 500 LINE",
"10 500 LINE"
);
},
{
closed = 1;
nodes = (
"68 180 LINE SMOOTH",
"68 58 OFFCURVE",
"136 -9 OFFCURVE",
"234 -9 CURVE SMOOTH",
"303 -9 OFFCURVE",
"374 24 OFFCURVE",
"374 103 CURVE SMOOTH",
"374 145 OFFCURVE",
"354 176 OFFCURVE",
"314 176 CURVE SMOOTH",
"298 176 OFFCURVE",
"284 182 OFFCURVE",
"284 222 CURVE SMOOTH",
"284 590 LINE",
"68 590 LINE"
);
}
);
width = 384;
},
{
associatedMasterId = "83B83716-1CD1-47ED-B715-8773FED73F88";
layerId = "5B95928F-32F4-4D64-BD97-2F765EE2BA2D";
name = "5 juin 25 à 12:48";
paths = (
{
closed = 1;
nodes = (
"10 330 LINE",
"364 330 LINE",
"364 500 LINE",
"10 500 LINE"
);
},
{
closed = 1;
nodes = (
"68 180 LINE SMOOTH",
"68 38 OFFCURVE",
"146 -29 OFFCURVE",
"364 11 CURVE",
"364 186 LINE",
"298 176 OFFCURVE",
"284 192 OFFCURVE",
"284 232 CURVE SMOOTH",
"284 540 LINE SMOOTH",
"284 682 OFFCURVE",
"68 682 OFFCURVE",
"68 540 CURVE SMOOTH"
);
}
);
width = 374;
},
{
associatedMasterId = "83B83716-1CD1-47ED-B715-8773FED73F88";
layerId = "5318EBD5-6885-46B6-A403-5A380D318853";
name = "5 juin 25 à 12:49";
paths = (
{
closed = 1;
nodes = (
"10 330 LINE",
"364 330 LINE",
"364 500 LINE",
"10 500 LINE"
);
},
{
closed = 1;
nodes = (
"284 0 LINE",
"284 540 LINE SMOOTH",
"284 662 OFFCURVE",
"68 662 OFFCURVE",
"68 540 CURVE SMOOTH",
"68 0 LINE"
);
}
);
width = 374;
}
);
leftMetricsKey = "=f";
unicode = 0074;
},
{
glyphname = u;
lastChange = "2025-06-05 10:03:59 +0000";
layers = (
{
layerId = "D8D2F0D2-8948-448B-99CD-378CDFD0E0AE";
paths = (
{
closed = 1;
nodes = (
"90 500 LINE",
"90 152 LINE SMOOTH",
"90 47 OFFCURVE",
"147 -8 OFFCURVE",
"235 -10 CURVE SMOOTH",
"313 -12 OFFCURVE",
"382 28 OFFCURVE",
"420 106 CURVE",
"396 165 LINE",
"396 94 OFFCURVE",
"325 46 OFFCURVE",
"252 46 CURVE SMOOTH",
"186 46 OFFCURVE",
"150 85 OFFCURVE",
"150 165 CURVE SMOOTH",
"150 500 LINE"
);
},
{
closed = 1;
nodes = (
"396 500 LINE",
"396 0 LINE",
"456 0 LINE",
"456 500 LINE"
);
}
);
width = 556;
},
{
layerId = "83B83716-1CD1-47ED-B715-8773FED73F88";
paths = (
{
closed = 1;
nodes = (
"16 500 LINE",
"16 182 LINE SMOOTH",
"16 47 OFFCURVE",
"74 -10 OFFCURVE",
"169 -10 CURVE SMOOTH",
"247 -10 OFFCURVE",
"304 28 OFFCURVE",
"332 106 CURVE",
"312 259 LINE",
"312 216 OFFCURVE",
"291 192 OFFCURVE",
"267 192 CURVE SMOOTH",
"246 192 OFFCURVE",
"232 209 OFFCURVE",
"232 257 CURVE SMOOTH",
"232 500 LINE"
);
},
{
closed = 1;
nodes = (
"312 500 LINE",
"312 0 LINE",
"528 0 LINE",
"528 500 LINE"
);
}
);
width = 552;
}
);
leftMetricsKey = "=|n";
rightMetricsKey = "=|n";
unicode = 0075;
},
{
glyphname = v;
lastChange = "2025-06-05 10:11:17 +0000";
layers = (
{
layerId = "D8D2F0D2-8948-448B-99CD-378CDFD0E0AE";
paths = (
{
closed = 1;
nodes = (
"276 0 LINE",
"95 500 LINE",
"30 500 LINE",
"220 0 LINE"
);
},
{
closed = 1;
nodes = (
"470 500 LINE",
"405 500 LINE",
"224 0 LINE",
"280 0 LINE"
);
}
);
width = 500;
},
{
layerId = "83B83716-1CD1-47ED-B715-8773FED73F88";
paths = (
{
closed = 1;
nodes = (
"348 0 LINE",
"246 500 LINE",
"2 500 LINE",
"182 0 LINE"
);
},
{
closed = 1;
nodes = (
"596 500 LINE",
"352 500 LINE",
"250 0 LINE",
"416 0 LINE"
);
}
);
width = 598;
}
);
rightMetricsKey = "=|";
unicode = 0076;
},
{
glyphname = w;
lastChange = "2021-08-25 10:46:24 +0000";
layers = (
{
layerId = "D8D2F0D2-8948-448B-99CD-378CDFD0E0AE";
paths = (
{
closed = 1;
nodes = (
"261 0 LINE",
"100 500 LINE",
"35 500 LINE",
"205 0 LINE"
);
},
{
closed = 1;
nodes = (
"433 500 LINE",
"371 500 LINE",
"209 0 LINE",
"265 0 LINE"
);
},
{
closed = 1;
nodes = (
"597 0 LINE",
"435 500 LINE",
"373 500 LINE",
"541 0 LINE"
);
},
{
closed = 1;
nodes = (
"771 500 LINE",
"706 500 LINE",
"545 0 LINE",
"601 0 LINE"
);
}
);
width = 806;
},
{
layerId = "83B83716-1CD1-47ED-B715-8773FED73F88";
paths = (
{
closed = 1;
nodes = (
"319 0 LINE",
"209 500 LINE",
"25 500 LINE",
"181 0 LINE"
);
},
{
closed = 1;
nodes = (
"524 500 LINE",
"367 500 LINE",
"237 0 LINE",
"373 0 LINE"
);
},
{
closed = 1;
nodes = (
"663 0 LINE",
"533 500 LINE",
"376 500 LINE",
"527 0 LINE"
);
},
{
closed = 1;
nodes = (
"875 500 LINE",
"691 500 LINE",
"581 0 LINE",
"719 0 LINE"
);
}
);
width = 900;
},
{
associatedMasterId = "83B83716-1CD1-47ED-B715-8773FED73F88";
layerId = "4D1645BF-BEDF-4181-8641-6FB18604B64F";
name = "Aug 25 21, 12:44";
paths = (
{
closed = 1;
nodes = (
"264 0 LINE",
"214 500 LINE",
"30 500 LINE",
"126 0 LINE"
);
},
{
closed = 1;
nodes = (
"449 250 LINE",
"395 450 LINE",
"162 0 LINE",
"318 0 LINE"
);
},
{
closed = 1;
nodes = (
"628 0 LINE",
"395 450 LINE",
"341 250 LINE",
"472 0 LINE"
);
},
{
closed = 1;
nodes = (
"760 500 LINE",
"576 500 LINE",
"526 0 LINE",
"664 0 LINE"
);
}
);
width = 790;
}
);
rightMetricsKey = "=|";
unicode = 0077;
},
{
glyphname = x;
lastChange = "2021-08-14 12:46:38 +0000";
layers = (
{
layerId = "D8D2F0D2-8948-448B-99CD-378CDFD0E0AE";
paths = (
{
closed = 1;
nodes = (
"202 248 LINE",
"40 0 LINE",
"107 0 LINE",
"260 234 LINE",
"210 234 LINE",
"363 0 LINE",
"430 0 LINE",
"269 248 LINE",
"433 500 LINE",
"366 500 LINE",
"210 261 LINE",
"260 261 LINE",
"104 500 LINE",
"37 500 LINE"
);
}
);
width = 470;
},
{
layerId = "83B83716-1CD1-47ED-B715-8773FED73F88";
paths = (
{
closed = 1;
nodes = (
"161 248 LINE",
"13 0 LINE",
"199 0 LINE",
"288 155 LINE",
"258 155 LINE",
"347 0 LINE",
"533 0 LINE",
"386 248 LINE",
"536 500 LINE",
"350 500 LINE",
"258 341 LINE",
"288 341 LINE",
"196 500 LINE",
"10 500 LINE"
);
}
);
width = 546;
}
);
rightMetricsKey = "=|";
unicode = 0078;
},
{
glyphname = y;
lastChange = "2025-06-05 10:17:49 +0000";
layers = (
{
components = (
{
name = v;
}
);
layerId = "83B83716-1CD1-47ED-B715-8773FED73F88";
paths = (
{
closed = 1;
nodes = (
"289 -206 OFFCURVE",
"359 -160 OFFCURVE",
"410 -18 CURVE SMOOTH",
"596 500 LINE",
"301 102 LINE",
"2 500 LINE",
"173 27 LINE SMOOTH",
"191 -22 OFFCURVE",
"159 -36 OFFCURVE",
"123 -36 CURVE SMOOTH",
"85 -36 OFFCURVE",
"44 -53 OFFCURVE",
"44 -110 CURVE SMOOTH",
"44 -181 OFFCURVE",
"106 -206 OFFCURVE",
"182 -206 CURVE SMOOTH"
);
}
);
width = 598;
},
{
associatedMasterId = "D8D2F0D2-8948-448B-99CD-378CDFD0E0AE";
components = (
{
name = v;
}
);
layerId = "A968634C-B40A-4952-AF67-6C361F76089D";
name = "5 juin 25 à 12:15";
paths = (
{
closed = 1;
nodes = (
"45 -185 OFFCURVE",
"71 -206 OFFCURVE",
"113 -206 CURVE SMOOTH",
"175 -206 OFFCURVE",
"218 -161 OFFCURVE",
"259 -54 CURVE SMOOTH",
"470 500 LINE",
"220 0 LINE",
"165 -135 OFFCURVE",
"144 -175 OFFCURVE",
"38 -145 CURVE"
);
}
);
width = 500;
},
{
components = (
{
name = v;
}
);
layerId = "D8D2F0D2-8948-448B-99CD-378CDFD0E0AE";
name = Thin;
paths = (
{
closed = 1;
nodes = (
"166 -206 OFFCURVE",
"221 -154 OFFCURVE",
"273 -18 CURVE SMOOTH",
"470 500 LINE",
"250 39 LINE",
"31 500 LINE",
"207 36 LINE SMOOTH",
"235 -39 OFFCURVE",
"168 -146 OFFCURVE",
"98 -146 CURVE SMOOTH",
"75 -146 OFFCURVE",
"61 -158 OFFCURVE",
"61 -177 CURVE SMOOTH",
"61 -199 OFFCURVE",
"78 -206 OFFCURVE",
"104 -206 CURVE SMOOTH"
);
}
);
width = 500;
}
);
leftMetricsKey = "=v";
rightMetricsKey = "=v";
unicode = 0079;
},
{
glyphname = z;
lastChange = "2021-08-14 16:13:17 +0000";
layers = (
{
layerId = "D8D2F0D2-8948-448B-99CD-378CDFD0E0AE";
paths = (
{
closed = 1;
nodes = (
"60 446 LINE",
"380 446 LINE",
"420 466 LINE",
"420 500 LINE",
"60 500 LINE"
);
},
{
closed = 1;
nodes = (
"60 0 LINE",
"420 0 LINE",
"420 54 LINE",
"97 54 LINE",
"60 34 LINE"
);
},
{
closed = 1;
nodes = (
"127 34 LINE",
"420 466 LINE",
"353 466 LINE",
"60 34 LINE"
);
}
);
width = 480;
},
{
layerId = "83B83716-1CD1-47ED-B715-8773FED73F88";
paths = (
{
closed = 1;
nodes = (
"60 350 LINE",
"404 350 LINE",
"464 376 LINE",
"464 500 LINE",
"60 500 LINE"
);
},
{
closed = 1;
nodes = (
"60 0 LINE",
"464 0 LINE",
"464 150 LINE",
"117 150 LINE",
"60 124 LINE"
);
},
{
closed = 1;
nodes = (
"258 114 LINE",
"464 376 LINE",
"266 386 LINE",
"60 124 LINE"
);
}
);
width = 524;
}
);
unicode = 007A;
},
{
glyphname = zero;
lastChange = "2021-09-10 20:39:31 +0000";
layers = (
{
layerId = "D8D2F0D2-8948-448B-99CD-378CDFD0E0AE";
paths = (
{
closed = 1;
nodes = (
"44 130 OFFCURVE",
"145 -10 OFFCURVE",
"299 -10 CURVE SMOOTH",
"455 -10 OFFCURVE",
"556 140 OFFCURVE",
"556 405 CURVE SMOOTH",
"556 654 OFFCURVE",
"461 790 OFFCURVE",
"311 790 CURVE SMOOTH",
"152 790 OFFCURVE",
"44 635 OFFCURVE",
"44 375 CURVE SMOOTH"
);
},
{
closed = 1;
nodes = (
"110 605 OFFCURVE",
"189 730 OFFCURVE",
"307 730 CURVE SMOOTH",
"418 730 OFFCURVE",
"490 617 OFFCURVE",
"490 399 CURVE SMOOTH",
"490 169 OFFCURVE",
"418 50 OFFCURVE",
"303 50 CURVE SMOOTH",
"188 50 OFFCURVE",
"110 168 OFFCURVE",
"110 381 CURVE SMOOTH"
);
}
);
width = 600;
},
{
layerId = "83B83716-1CD1-47ED-B715-8773FED73F88";
width = 600;
}
);
unicode = 0030;
},
{
glyphname = one;
lastChange = "2025-05-30 15:26:00 +0000";
layers = (
{
layerId = "D8D2F0D2-8948-448B-99CD-378CDFD0E0AE";
paths = (
{
closed = 1;
nodes = (
"280 780 LINE",
"280 0 LINE",
"346 0 LINE",
"346 780 LINE"
);
},
{
closed = 1;
nodes = (
"133 599 OFFCURVE",
"260 666 OFFCURVE",
"295 722 CURVE",
"280 780 LINE",
"235 724 OFFCURVE",
"182 699 OFFCURVE",
"80 671 CURVE"
);
}
);
width = 600;
},
{
layerId = "83B83716-1CD1-47ED-B715-8773FED73F88";
width = 600;
}
);
unicode = 0031;
},
{
glyphname = two;
lastChange = "2025-05-30 16:07:07 +0000";
layers = (
{
layerId = "D8D2F0D2-8948-448B-99CD-378CDFD0E0AE";
paths = (
{
closed = 1;
nodes = (
"325 732 LINE",
"426 732 OFFCURVE",
"479 664 OFFCURVE",
"479 578 CURVE SMOOTH",
"479 342 OFFCURVE",
"64 437 OFFCURVE",
"64 0 CURVE",
"126 0 LINE",
"125 408 OFFCURVE",
"543 295 OFFCURVE",
"543 578 CURVE SMOOTH",
"543 701 OFFCURVE",
"463 790 OFFCURVE",
"328 790 CURVE"
);
},
{
closed = 1;
nodes = (
"94 0 LINE",
"556 0 LINE",
"556 60 LINE",
"94 60 LINE"
);
},
{
closed = 1;
nodes = (
"185 790 OFFCURVE",
"44 698 OFFCURVE",
"107 617 CURVE",
"154 692 OFFCURVE",
"233 732 OFFCURVE",
"325 732 CURVE",
"328 790 LINE"
);
}
);
width = 600;
},
{
layerId = "83B83716-1CD1-47ED-B715-8773FED73F88";
width = 600;
},
{
associatedMasterId = "D8D2F0D2-8948-448B-99CD-378CDFD0E0AE";
layerId = "24E6C80F-32C1-47B8-AF2C-0071E576D8FD";
name = "Sep 10 21, 23:45";
paths = (
{
closed = 1;
nodes = (
"172 678 OFFCURVE",
"243 730 OFFCURVE",
"329 730 CURVE SMOOTH",
"426 730 OFFCURVE",
"481 664 OFFCURVE",
"481 574 CURVE SMOOTH",
"481 334 OFFCURVE",
"64 387 OFFCURVE",
"64 0 CURVE",
"125 0 LINE",
"124 357 OFFCURVE",
"543 287 OFFCURVE",
"543 574 CURVE SMOOTH",
"543 700 OFFCURVE",
"463 790 OFFCURVE",
"331 790 CURVE SMOOTH",
"217 790 OFFCURVE",
"126 724 OFFCURVE",
"76 613 CURVE",
"133 588 LINE"
);
},
{
closed = 1;
nodes = (
"94 0 LINE",
"556 0 LINE",
"556 60 LINE",
"94 60 LINE"
);
}
);
width = 600;
}
);
unicode = 0032;
},
{
glyphname = three;
lastChange = "2025-05-30 16:07:21 +0000";
layers = (
{
layerId = "D8D2F0D2-8948-448B-99CD-378CDFD0E0AE";
paths = (
{
closed = 1;
nodes = (
"414 390 OFFCURVE",
"539 443 OFFCURVE",
"539 585 CURVE SMOOTH",
"539 700 OFFCURVE",
"457 790 OFFCURVE",
"325 790 CURVE",
"319 732 LINE",
"420 732 OFFCURVE",
"475 664 OFFCURVE",
"475 580 CURVE SMOOTH",
"475 467 OFFCURVE",
"376 434 OFFCURVE",
"255 434 CURVE",
"255 390 LINE"
);
},
{
closed = 1;
nodes = (
"484 115 OFFCURVE",
"417 48 OFFCURVE",
"296 48 CURVE SMOOTH",
"215 48 OFFCURVE",
"147 79 OFFCURVE",
"103 163 CURVE",
"50 78 OFFCURVE",
"138 -10 OFFCURVE",
"293 -10 CURVE SMOOTH",
"436 -10 OFFCURVE",
"548 67 OFFCURVE",
"548 208 CURVE SMOOTH",
"548 396 OFFCURVE",
"357 425 OFFCURVE",
"255 425 CURVE",
"255 376 LINE",
"382 376 OFFCURVE",
"484 324 OFFCURVE",
"484 207 CURVE SMOOTH"
);
},
{
closed = 1;
nodes = (
"185 376 LINE",
"255 376 LINE",
"255 434 LINE",
"185 434 LINE"
);
},
{
closed = 1;
nodes = (
"182 790 OFFCURVE",
"41 698 OFFCURVE",
"104 617 CURVE",
"151 692 OFFCURVE",
"230 732 OFFCURVE",
"319 732 CURVE",
"325 790 LINE"
);
}
);
width = 600;
},
{
layerId = "83B83716-1CD1-47ED-B715-8773FED73F88";
width = 600;
},
{
associatedMasterId = "D8D2F0D2-8948-448B-99CD-378CDFD0E0AE";
layerId = "FFA630A1-16CC-4EE5-8BC8-5692722E01EF";
name = "30 mai 25 à 17:26";
paths = (
{
closed = 1;
nodes = (
"414 390 OFFCURVE",
"539 443 OFFCURVE",
"539 585 CURVE SMOOTH",
"539 700 OFFCURVE",
"457 790 OFFCURVE",
"325 790 CURVE SMOOTH",
"211 790 OFFCURVE",
"120 724 OFFCURVE",
"70 643 CURVE",
"121 607 LINE",
"168 682 OFFCURVE",
"237 732 OFFCURVE",
"322 732 CURVE SMOOTH",
"420 732 OFFCURVE",
"475 664 OFFCURVE",
"475 580 CURVE SMOOTH",
"475 467 OFFCURVE",
"376 434 OFFCURVE",
"255 434 CURVE",
"255 390 LINE"
);
},
{
closed = 1;
nodes = (
"484 115 OFFCURVE",
"417 48 OFFCURVE",
"296 48 CURVE SMOOTH",
"215 48 OFFCURVE",
"157 79 OFFCURVE",
"103 163 CURVE",
"48 122 LINE",
"102 31 OFFCURVE",
"190 -10 OFFCURVE",
"293 -10 CURVE SMOOTH",
"436 -10 OFFCURVE",
"548 67 OFFCURVE",
"548 208 CURVE SMOOTH",
"548 396 OFFCURVE",
"357 425 OFFCURVE",
"255 425 CURVE",
"255 376 LINE",
"382 376 OFFCURVE",
"484 324 OFFCURVE",
"484 207 CURVE SMOOTH"
);
},
{
closed = 1;
nodes = (
"185 376 LINE",
"255 376 LINE",
"255 434 LINE",
"185 434 LINE"
);
}
);
width = 600;
}
);
unicode = 0033;
},
{
glyphname = four;
lastChange = "2021-09-10 22:08:41 +0000";
layers = (
{
layerId = "D8D2F0D2-8948-448B-99CD-378CDFD0E0AE";
paths = (
{
closed = 1;
nodes = (
"394 0 LINE",
"460 0 LINE",
"460 780 LINE",
"394 780 LINE"
);
},
{
closed = 1;
nodes = (
"12 224 LINE",
"574 224 LINE",
"574 284 LINE",
"12 284 LINE"
);
},
{
closed = 1;
nodes = (
"12 284 LINE",
"81 284 LINE",
"456 780 LINE",
"386 780 LINE"
);
}
);
width = 600;
},
{
layerId = "83B83716-1CD1-47ED-B715-8773FED73F88";
width = 600;
}
);
unicode = 0034;
},
{
glyphname = five;
lastChange = "2025-05-30 16:07:23 +0000";
layers = (
{
layerId = "D8D2F0D2-8948-448B-99CD-378CDFD0E0AE";
paths = (
{
closed = 1;
nodes = (
"495 115 OFFCURVE",
"417 48 OFFCURVE",
"296 48 CURVE SMOOTH",
"215 48 OFFCURVE",
"147 79 OFFCURVE",
"103 163 CURVE",
"50 78 OFFCURVE",
"138 -10 OFFCURVE",
"293 -10 CURVE SMOOTH",
"436 -10 OFFCURVE",
"557 67 OFFCURVE",
"557 237 CURVE SMOOTH",
"557 392 OFFCURVE",
"456 522 OFFCURVE",
"159 468 CURVE",
"105 403 LINE",
"423 466 OFFCURVE",
"495 352 OFFCURVE",
"495 235 CURVE SMOOTH"
);
},
{
closed = 1;
nodes = (
"145 720 LINE",
"531 720 LINE",
"531 780 LINE",
"145 780 LINE"
);
},
{
closed = 1;
nodes = (
"105 403 LINE",
"166 446 LINE",
"201 780 LINE",
"145 780 LINE"
);
}
);
width = 600;
},
{
layerId = "83B83716-1CD1-47ED-B715-8773FED73F88";
width = 600;
}
);
unicode = 0035;
},
{
glyphname = six;
lastChange = "2025-05-30 16:07:39 +0000";
layers = (
{
layerId = "D8D2F0D2-8948-448B-99CD-378CDFD0E0AE";
paths = (
{
closed = 1;
nodes = (
"496 108 OFFCURVE",
"406 50 OFFCURVE",
"316 50 CURVE SMOOTH",
"188 50 OFFCURVE",
"104 167 OFFCURVE",
"106 387 CURVE SMOOTH",
"108 595 OFFCURVE",
"184 730 OFFCURVE",
"334 730 CURVE SMOOTH",
"413 730 OFFCURVE",
"471 692 OFFCURVE",
"507 636 CURVE",
"559 695 OFFCURVE",
"478 790 OFFCURVE",
"337 790 CURVE SMOOTH",
"149 790 OFFCURVE",
"44 625 OFFCURVE",
"44 375 CURVE SMOOTH",
"44 131 OFFCURVE",
"146 -10 OFFCURVE",
"313 -10 CURVE SMOOTH",
"432 -10 OFFCURVE",
"558 62 OFFCURVE",
"558 235 CURVE SMOOTH",
"558 373 OFFCURVE",
"479 478 OFFCURVE",
"323 478 CURVE SMOOTH",
"241 478 OFFCURVE",
"169 449 OFFCURVE",
"89 402 CURVE",
"92 342 LINE",
"167 389 OFFCURVE",
"242 418 OFFCURVE",
"314 418 CURVE SMOOTH",
"427 418 OFFCURVE",
"496 346 OFFCURVE",
"496 234 CURVE SMOOTH"
);
}
);
width = 600;
},
{
layerId = "83B83716-1CD1-47ED-B715-8773FED73F88";
width = 600;
},
{
associatedMasterId = "D8D2F0D2-8948-448B-99CD-378CDFD0E0AE";
layerId = "D28698A3-FBA8-4D76-95A0-9273F026368D";
name = "Sep 11 21, 15:19";
paths = (
{
closed = 1;
nodes = (
"496 108 OFFCURVE",
"406 50 OFFCURVE",
"316 50 CURVE SMOOTH",
"188 50 OFFCURVE",
"106 167 OFFCURVE",
"108 387 CURVE SMOOTH",
"110 595 OFFCURVE",
"184 730 OFFCURVE",
"324 730 CURVE SMOOTH",
"407 730 OFFCURVE",
"471 682 OFFCURVE",
"497 591 CURVE",
"560 612 LINE",
"516 736 OFFCURVE",
"430 790 OFFCURVE",
"327 790 CURVE SMOOTH",
"149 790 OFFCURVE",
"44 625 OFFCURVE",
"44 375 CURVE SMOOTH",
"44 131 OFFCURVE",
"146 -10 OFFCURVE",
"313 -10 CURVE SMOOTH",
"432 -10 OFFCURVE",
"560 62 OFFCURVE",
"560 235 CURVE SMOOTH",
"560 373 OFFCURVE",
"479 468 OFFCURVE",
"326 468 CURVE SMOOTH",
"241 468 OFFCURVE",
"169 439 OFFCURVE",
"89 386 CURVE",
"92 322 LINE",
"167 379 OFFCURVE",
"243 406 OFFCURVE",
"317 406 CURVE SMOOTH",
"427 406 OFFCURVE",
"496 346 OFFCURVE",
"496 234 CURVE SMOOTH"
);
}
);
width = 600;
}
);
unicode = 0036;
},
{
glyphname = seven;
lastChange = "2021-09-10 22:08:06 +0000";
layers = (
{
layerId = "D8D2F0D2-8948-448B-99CD-378CDFD0E0AE";
paths = (
{
closed = 1;
nodes = (
"201 0 LINE",
"270 0 LINE",
"564 720 LINE",
"495 720 LINE"
);
},
{
closed = 1;
nodes = (
"52 720 LINE",
"564 720 LINE",
"564 780 LINE",
"52 780 LINE"
);
}
);
width = 600;
},
{
layerId = "83B83716-1CD1-47ED-B715-8773FED73F88";
width = 600;
}
);
unicode = 0037;
},
{
glyphname = dotaccentcomb;
lastChange = "2025-06-05 07:52:18 +0000";
layers = (
{
anchors = (
{
name = _top;
position = "{130, 500}";
},
{
name = top;
position = "{130, 740}";
}
);
layerId = "D8D2F0D2-8948-448B-99CD-378CDFD0E0AE";
paths = (
{
closed = 1;
nodes = (
"156 660 OFFCURVE",
"170 678 OFFCURVE",
"170 700 CURVE SMOOTH",
"170 722 OFFCURVE",
"156 740 OFFCURVE",
"130 740 CURVE SMOOTH",
"104 740 OFFCURVE",
"90 722 OFFCURVE",
"90 700 CURVE SMOOTH",
"90 678 OFFCURVE",
"104 660 OFFCURVE",
"130 660 CURVE SMOOTH"
);
}
);
width = 260;
},
{
anchors = (
{
name = _top;
position = "{142, 500}";
},
{
name = top;
position = "{142, 780}";
}
);
layerId = "83B83716-1CD1-47ED-B715-8773FED73F88";
paths = (
{
closed = 1;
nodes = (
"221 515 OFFCURVE",
"262 557 OFFCURVE",
"262 628 CURVE SMOOTH",
"262 699 OFFCURVE",
"221 740 OFFCURVE",
"142 740 CURVE SMOOTH",
"63 740 OFFCURVE",
"22 699 OFFCURVE",
"22 628 CURVE SMOOTH",
"22 557 OFFCURVE",
"63 515 OFFCURVE",
"142 515 CURVE SMOOTH"
);
}
);
width = 284;
}
);
unicode = 0307;
},
{
export = 0;
glyphname = _panse;
lastChange = "2025-06-02 11:05:53 +0000";
layers = (
{
layerId = "D8D2F0D2-8948-448B-99CD-378CDFD0E0AE";
paths = (
{
closed = 1;
nodes = (
"160 335 LINE",
"160 406 OFFCURVE",
"229 454 OFFCURVE",
"301 454 CURVE SMOOTH",
"372 454 OFFCURVE",
"448 407 OFFCURVE",
"448 252 CURVE SMOOTH",
"448 107 OFFCURVE",
"382 44 OFFCURVE",
"299 44 CURVE SMOOTH",
"218 44 OFFCURVE",
"160 104 OFFCURVE",
"160 175 CURVE",
"144 102 LINE",
"170 27 OFFCURVE",
"222 -10 OFFCURVE",
"301 -10 CURVE SMOOTH",
"438 -10 OFFCURVE",
"512 102 OFFCURVE",
"512 255 CURVE SMOOTH",
"512 438 OFFCURVE",
"410 510 OFFCURVE",
"310 510 CURVE SMOOTH",
"237 510 OFFCURVE",
"174 472 OFFCURVE",
"136 384 CURVE"
);
}
